<svg width="687" height="110" viewBox="0 0 687 110" fill="none" xmlns="http://www.w3.org/2000/svg">
<path d="M49.8873 16.168C49.3326 16.168 48.9219 16.2747 48.6553 16.488C48.3886 16.7013 48.2126 17.0587 48.1273 17.56L48.0153 18.184H49.6473L49.3913 19.672H47.7593L46.4633 27H44.6233L45.9193 19.672H44.8793L45.1353 18.184H46.1753L46.2873 17.56C46.4686 16.5467 46.8686 15.8107 47.4873 15.352C48.1059 14.8827 48.9913 14.648 50.1433 14.648L49.8873 16.168ZM55.0878 18.04C56.1864 18.04 57.0611 18.3493 57.7118 18.968C58.3731 19.5867 58.7038 20.4187 58.7038 21.464C58.7038 21.7093 58.6771 22.0027 58.6238 22.344C58.5811 22.5787 58.5064 22.8667 58.3998 23.208H51.6638C51.6531 23.2827 51.6478 23.3947 51.6478 23.544C51.6478 24.1733 51.8398 24.6747 52.2238 25.048C52.6184 25.4213 53.1304 25.608 53.7598 25.608C54.7518 25.608 55.5144 25.1973 56.0478 24.376H58.0158C57.6104 25.1867 57.0131 25.8533 56.2238 26.376C55.4344 26.888 54.5224 27.144 53.4878 27.144C52.7518 27.144 52.1064 27 51.5518 26.712C50.9971 26.424 50.5651 26.0133 50.2558 25.48C49.9464 24.936 49.7918 24.3013 49.7918 23.576C49.7918 23.2667 49.8238 22.936 49.8878 22.584C50.0478 21.6773 50.3731 20.8827 50.8638 20.2C51.3544 19.5067 51.9624 18.9733 52.6878 18.6C53.4238 18.2267 54.2238 18.04 55.0878 18.04ZM56.7998 21.896C56.8211 21.704 56.8318 21.5653 56.8318 21.48C56.8318 20.8933 56.6344 20.4293 56.2398 20.088C55.8558 19.7467 55.3544 19.576 54.7358 19.576C54.0851 19.576 53.4984 19.784 52.9758 20.2C52.4531 20.616 52.0958 21.1813 51.9038 21.896H56.7998ZM59.7628 22.552C59.9228 21.6667 60.2428 20.8827 60.7228 20.2C61.2134 19.5173 61.8108 18.9893 62.5148 18.616C63.2188 18.232 63.9548 18.04 64.7228 18.04C65.4161 18.04 65.9974 18.1787 66.4668 18.456C66.9361 18.7227 67.2881 19.0587 67.5228 19.464L67.7468 18.184H69.5868L68.0347 27H66.1948L66.4348 25.688C66.0508 26.104 65.5654 26.4507 64.9788 26.728C64.4028 27.0053 63.7734 27.144 63.0908 27.144C62.4294 27.144 61.8374 26.9947 61.3148 26.696C60.8028 26.3973 60.3974 25.976 60.0988 25.432C59.8108 24.8773 59.6668 24.2427 59.6668 23.528C59.6668 23.208 59.6988 22.8827 59.7628 22.552ZM66.9788 22.584C67.0214 22.3813 67.0428 22.1627 67.0428 21.928C67.0428 21.2133 66.8294 20.6533 66.4028 20.248C65.9868 19.832 65.4641 19.624 64.8348 19.624C64.3654 19.624 63.9068 19.7413 63.4588 19.976C63.0108 20.2 62.6214 20.536 62.2908 20.984C61.9601 21.4213 61.7414 21.944 61.6348 22.552C61.5921 22.7547 61.5707 22.9733 61.5707 23.208C61.5707 23.9333 61.7788 24.5093 62.1948 24.936C62.6214 25.352 63.1494 25.56 63.7788 25.56C64.2481 25.56 64.7068 25.4427 65.1548 25.208C65.6028 24.9733 65.9921 24.632 66.3228 24.184C66.6534 23.7253 66.8721 23.192 66.9788 22.584ZM72.9905 24.552C72.9692 24.7013 72.9585 24.7973 72.9585 24.84C72.9585 25.064 73.0278 25.2293 73.1665 25.336C73.3052 25.432 73.5345 25.48 73.8545 25.48H74.9745L74.7025 27H73.2625C72.5585 27 72.0198 26.8613 71.6465 26.584C71.2732 26.296 71.0865 25.8427 71.0865 25.224C71.0865 24.9893 71.1078 24.7653 71.1505 24.552L72.0145 19.672H70.9745L71.2305 18.184H72.2865L72.6705 15.992H74.5105L74.1265 18.184H76.2545L75.9985 19.672H73.8545L72.9905 24.552ZM85.9196 18.184L84.3676 27H82.5436L82.7196 25.96C82.3676 26.3227 81.941 26.6107 81.4396 26.824C80.949 27.0267 80.4423 27.128 79.9196 27.128C78.9916 27.128 78.2503 26.8773 77.6956 26.376C77.141 25.8747 76.8636 25.1653 76.8636 24.248C76.8636 24.0027 76.8903 23.7093 76.9436 23.368L77.8556 18.184H79.6636L78.7996 23.096C78.757 23.3947 78.7356 23.608 78.7356 23.736C78.7356 24.3227 78.8956 24.7707 79.2156 25.08C79.5463 25.3893 79.9996 25.544 80.5756 25.544C81.2476 25.544 81.8183 25.3467 82.2876 24.952C82.757 24.5467 83.0663 23.9653 83.2156 23.208L84.0956 18.184H85.9196ZM89.8783 19.736C90.2409 19.2027 90.6676 18.7867 91.1583 18.488C91.6596 18.1893 92.2143 18.04 92.8223 18.04L92.4863 19.928H92.0223C91.3183 19.928 90.7529 20.104 90.3263 20.456C89.8996 20.808 89.6009 21.416 89.4303 22.28L88.5983 27H86.7743L88.3263 18.184H90.1503L89.8783 19.736ZM98.2909 18.04C99.3895 18.04 100.264 18.3493 100.915 18.968C101.576 19.5867 101.907 20.4187 101.907 21.464C101.907 21.7093 101.88 22.0027 101.827 22.344C101.784 22.5787 101.71 22.8667 101.603 23.208H94.8669C94.8562 23.2827 94.8509 23.3947 94.8509 23.544C94.8509 24.1733 95.0429 24.6747 95.4269 25.048C95.8215 25.4213 96.3335 25.608 96.9629 25.608C97.9549 25.608 98.7175 25.1973 99.2509 24.376H101.219C100.814 25.1867 100.216 25.8533 99.4269 26.376C98.6375 26.888 97.7255 27.144 96.6909 27.144C95.9549 27.144 95.3095 27 94.7549 26.712C94.2002 26.424 93.7682 26.0133 93.4589 25.48C93.1495 24.936 92.9949 24.3013 92.9949 23.576C92.9949 23.2667 93.0269 22.936 93.0909 22.584C93.2509 21.6773 93.5762 20.8827 94.0669 20.2C94.5575 19.5067 95.1655 18.9733 95.8909 18.6C96.6269 18.2267 97.4269 18.04 98.2909 18.04ZM100.003 21.896C100.024 21.704 100.035 21.5653 100.035 21.48C100.035 20.8933 99.8375 20.4293 99.4429 20.088C99.0589 19.7467 98.5575 19.576 97.9389 19.576C97.2882 19.576 96.7015 19.784 96.1789 20.2C95.6562 20.616 95.2989 21.1813 95.1069 21.896H100.003ZM106.038 27.144C105.43 27.144 104.875 27.0427 104.374 26.84C103.873 26.6267 103.478 26.3333 103.19 25.96C102.902 25.576 102.758 25.1387 102.758 24.648C102.758 24.5627 102.769 24.4453 102.79 24.296H104.566C104.523 24.7013 104.646 25.0373 104.934 25.304C105.222 25.5707 105.627 25.704 106.15 25.704C106.662 25.704 107.083 25.6133 107.414 25.432C107.745 25.2507 107.91 24.984 107.91 24.632C107.91 24.3333 107.771 24.0933 107.494 23.912C107.227 23.7307 106.795 23.528 106.198 23.304C105.633 23.08 105.174 22.872 104.822 22.68C104.47 22.488 104.166 22.2267 103.91 21.896C103.654 21.5547 103.526 21.1333 103.526 20.632C103.526 20.12 103.67 19.672 103.958 19.288C104.257 18.8933 104.667 18.5893 105.19 18.376C105.723 18.152 106.331 18.04 107.014 18.04C107.633 18.04 108.182 18.1467 108.662 18.36C109.153 18.5627 109.531 18.856 109.798 19.24C110.075 19.6133 110.214 20.0453 110.214 20.536C110.214 20.6853 110.209 20.7973 110.198 20.872H108.47C108.513 20.456 108.39 20.12 108.102 19.864C107.825 19.608 107.425 19.48 106.902 19.48C106.443 19.48 106.07 19.576 105.782 19.768C105.505 19.96 105.366 20.2213 105.366 20.552C105.366 20.8827 105.51 21.1493 105.798 21.352C106.086 21.544 106.529 21.7573 107.126 21.992C107.67 22.2053 108.113 22.408 108.454 22.6C108.795 22.792 109.089 23.048 109.334 23.368C109.579 23.688 109.702 24.088 109.702 24.568C109.702 25.0907 109.542 25.5493 109.222 25.944C108.913 26.328 108.481 26.6267 107.926 26.84C107.371 27.0427 106.742 27.144 106.038 27.144Z" fill="#F3F3F3"/>
<rect x="172" width="104" height="45" rx="4" fill="#D6F2FF"/>
<path d="M203.43 17V11.8281C203.43 10.9583 203.107 10.5234 202.461 10.5234C202.138 10.5234 201.828 10.6536 201.531 10.9141C201.24 11.1745 200.93 11.5286 200.602 11.9766V17H198.695V9.0625H200.344L200.391 10.2344C200.552 10.0312 200.719 9.84635 200.891 9.67969C201.068 9.51302 201.258 9.3724 201.461 9.25781C201.664 9.13802 201.883 9.04688 202.117 8.98438C202.352 8.92188 202.615 8.89062 202.906 8.89062C203.312 8.89062 203.667 8.95833 203.969 9.09375C204.271 9.22396 204.523 9.41146 204.727 9.65625C204.93 9.89583 205.081 10.1875 205.18 10.5312C205.284 10.8698 205.336 11.25 205.336 11.6719V17H203.43ZM213.094 17V11.5938C213.094 11.3958 213.089 11.224 213.078 11.0781C213.068 10.9271 213.047 10.8021 213.016 10.7031C212.984 10.6042 212.938 10.5312 212.875 10.4844C212.818 10.4323 212.737 10.4062 212.633 10.4062C212.471 10.4062 212.312 10.5156 212.156 10.7344C212 10.9531 211.823 11.3255 211.625 11.8516V17H209.992V11.5938C209.992 11.3958 209.987 11.224 209.977 11.0781C209.966 10.9271 209.945 10.8021 209.914 10.7031C209.883 10.6042 209.836 10.5312 209.773 10.4844C209.711 10.4323 209.628 10.4062 209.523 10.4062C209.388 10.4062 209.237 10.5156 209.07 10.7344C208.904 10.9531 208.719 11.3255 208.516 11.8516V17H206.867V9.0625H208.281L208.312 10.2188C208.427 9.98438 208.542 9.78385 208.656 9.61719C208.771 9.45052 208.893 9.3151 209.023 9.21094C209.154 9.10156 209.292 9.02344 209.438 8.97656C209.589 8.92969 209.758 8.90625 209.945 8.90625C210.388 8.90625 210.724 9.02344 210.953 9.25781C211.188 9.48698 211.32 9.80729 211.352 10.2188C211.477 9.98438 211.599 9.78385 211.719 9.61719C211.844 9.45052 211.971 9.3151 212.102 9.21094C212.237 9.10156 212.38 9.02344 212.531 8.97656C212.688 8.92969 212.859 8.90625 213.047 8.90625C213.625 8.90625 214.052 9.10938 214.328 9.51562C214.604 9.91667 214.742 10.513 214.742 11.3047V17H213.094ZM222.836 14.6641C222.836 15.1172 222.734 15.5052 222.531 15.8281C222.333 16.1458 222.068 16.4062 221.734 16.6094C221.406 16.8073 221.031 16.9505 220.609 17.0391C220.193 17.1328 219.766 17.1797 219.328 17.1797C218.745 17.1797 218.219 17.151 217.75 17.0938C217.281 17.0417 216.839 16.9635 216.422 16.8594V15.1406C216.911 15.3438 217.398 15.4922 217.883 15.5859C218.372 15.6745 218.833 15.7188 219.266 15.7188C219.766 15.7188 220.138 15.6406 220.383 15.4844C220.633 15.3229 220.758 15.1146 220.758 14.8594C220.758 14.7396 220.732 14.6302 220.68 14.5312C220.628 14.4323 220.529 14.3385 220.383 14.25C220.242 14.1562 220.042 14.0625 219.781 13.9688C219.521 13.8698 219.18 13.7604 218.758 13.6406C218.367 13.5312 218.023 13.4089 217.727 13.2734C217.435 13.1328 217.193 12.9688 217 12.7812C216.807 12.5938 216.661 12.3776 216.562 12.1328C216.469 11.8828 216.422 11.5911 216.422 11.2578C216.422 10.9349 216.495 10.6302 216.641 10.3438C216.786 10.0573 217.003 9.80729 217.289 9.59375C217.581 9.375 217.943 9.20312 218.375 9.07812C218.807 8.95312 219.312 8.89062 219.891 8.89062C220.391 8.89062 220.833 8.91667 221.219 8.96875C221.604 9.02083 221.945 9.07812 222.242 9.14062V10.6953C221.789 10.5495 221.362 10.4479 220.961 10.3906C220.565 10.3281 220.172 10.2969 219.781 10.2969C219.391 10.2969 219.076 10.3672 218.836 10.5078C218.602 10.6484 218.484 10.8438 218.484 11.0938C218.484 11.2135 218.508 11.3203 218.555 11.4141C218.602 11.5078 218.693 11.599 218.828 11.6875C218.969 11.776 219.161 11.8698 219.406 11.9688C219.656 12.0625 219.984 12.1667 220.391 12.2812C220.849 12.4115 221.234 12.5521 221.547 12.7031C221.859 12.849 222.109 13.0156 222.297 13.2031C222.49 13.3906 222.628 13.6042 222.711 13.8438C222.794 14.0833 222.836 14.3568 222.836 14.6641ZM227.648 7.44531H225.406V5.96094H229.602V15.5156H231.891V17H225.133V15.5156H227.648V7.44531ZM238.555 6.89062C238.555 7.0625 238.523 7.22396 238.461 7.375C238.398 7.52604 238.31 7.65885 238.195 7.77344C238.086 7.88281 237.956 7.97135 237.805 8.03906C237.654 8.10156 237.49 8.13281 237.312 8.13281C237.135 8.13281 236.969 8.10156 236.812 8.03906C236.661 7.97135 236.529 7.88281 236.414 7.77344C236.305 7.65885 236.219 7.52604 236.156 7.375C236.094 7.22396 236.062 7.0625 236.062 6.89062C236.062 6.71875 236.094 6.55729 236.156 6.40625C236.219 6.25521 236.305 6.1224 236.414 6.00781C236.529 5.89323 236.661 5.80469 236.812 5.74219C236.969 5.67448 237.135 5.64062 237.312 5.64062C237.49 5.64062 237.654 5.67448 237.805 5.74219C237.956 5.80469 238.086 5.89323 238.195 6.00781C238.31 6.1224 238.398 6.25521 238.461 6.40625C238.523 6.55729 238.555 6.71875 238.555 6.89062ZM236.445 10.5469H234.203V9.0625H238.398V15.5156H240.688V17H233.93V15.5156H236.445V10.5469ZM249.82 12.8906C249.82 13.6198 249.716 14.25 249.508 14.7812C249.305 15.3125 249.018 15.7552 248.648 16.1094C248.284 16.4583 247.852 16.7188 247.352 16.8906C246.852 17.0573 246.307 17.1406 245.719 17.1406C245.141 17.1406 244.602 17.0964 244.102 17.0078C243.607 16.9245 243.133 16.8099 242.68 16.6641V5.96094H244.586V8.55469L244.508 10.1172C244.794 9.7474 245.128 9.45052 245.508 9.22656C245.893 9.0026 246.354 8.89062 246.891 8.89062C247.359 8.89062 247.776 8.98438 248.141 9.17188C248.505 9.35938 248.81 9.6276 249.055 9.97656C249.305 10.3203 249.495 10.7396 249.625 11.2344C249.755 11.724 249.82 12.276 249.82 12.8906ZM247.82 12.9688C247.82 12.5312 247.789 12.1589 247.727 11.8516C247.664 11.5443 247.573 11.2917 247.453 11.0938C247.339 10.8958 247.195 10.7526 247.023 10.6641C246.857 10.5703 246.664 10.5234 246.445 10.5234C246.122 10.5234 245.812 10.6536 245.516 10.9141C245.224 11.1745 244.914 11.5286 244.586 11.9766V15.4453C244.737 15.5026 244.922 15.5495 245.141 15.5859C245.365 15.6224 245.591 15.6406 245.82 15.6406C246.122 15.6406 246.396 15.5781 246.641 15.4531C246.891 15.3281 247.102 15.151 247.273 14.9219C247.451 14.6927 247.586 14.4141 247.68 14.0859C247.773 13.7526 247.82 13.3802 247.82 12.9688ZM199.985 33.224H203.665V35H197.745V23.832H199.985V33.224ZM205.536 32.472C206.56 31.6187 207.376 30.9093 207.984 30.344C208.592 29.768 209.099 29.1707 209.504 28.552C209.91 27.9333 210.112 27.3253 210.112 26.728C210.112 26.184 209.984 25.7573 209.728 25.448C209.472 25.1387 209.078 24.984 208.544 24.984C208.011 24.984 207.6 25.1653 207.312 25.528C207.024 25.88 206.875 26.3653 206.864 26.984H204.688C204.731 25.704 205.11 24.7333 205.824 24.072C206.55 23.4107 207.467 23.08 208.576 23.08C209.792 23.08 210.726 23.4053 211.376 24.056C212.027 24.696 212.352 25.544 212.352 26.6C212.352 27.432 212.128 28.2267 211.68 28.984C211.232 29.7413 210.72 30.4027 210.144 30.968C209.568 31.5227 208.816 32.1947 207.888 32.984H212.608V34.84H204.704V33.176L205.536 32.472ZM217.512 30.536C217.512 29.64 217.688 28.8453 218.04 28.152C218.403 27.4587 218.894 26.9253 219.512 26.552C220.131 26.1787 220.819 25.992 221.576 25.992C222.152 25.992 222.702 26.12 223.224 26.376C223.747 26.6213 224.163 26.952 224.472 27.368V23.16H226.744V35H224.472V33.688C224.195 34.1253 223.806 34.4773 223.304 34.744C222.803 35.0107 222.222 35.144 221.56 35.144C220.814 35.144 220.131 34.952 219.512 34.568C218.894 34.184 218.403 33.6453 218.04 32.952C217.688 32.248 217.512 31.4427 217.512 30.536ZM224.488 30.568C224.488 30.024 224.382 29.56 224.168 29.176C223.955 28.7813 223.667 28.4827 223.304 28.28C222.942 28.0667 222.552 27.96 222.136 27.96C221.72 27.96 221.336 28.0613 220.984 28.264C220.632 28.4667 220.344 28.7653 220.12 29.16C219.907 29.544 219.8 30.0027 219.8 30.536C219.8 31.0693 219.907 31.5387 220.12 31.944C220.344 32.3387 220.632 32.6427 220.984 32.856C221.347 33.0693 221.731 33.176 222.136 33.176C222.552 33.176 222.942 33.0747 223.304 32.872C223.667 32.6587 223.955 32.36 224.168 31.976C224.382 31.5813 224.488 31.112 224.488 30.568ZM230.068 25.08C229.673 25.08 229.343 24.9573 229.076 24.712C228.82 24.456 228.692 24.1413 228.692 23.768C228.692 23.3947 228.82 23.0853 229.076 22.84C229.343 22.584 229.673 22.456 230.068 22.456C230.463 22.456 230.788 22.584 231.044 22.84C231.311 23.0853 231.444 23.3947 231.444 23.768C231.444 24.1413 231.311 24.456 231.044 24.712C230.788 24.9573 230.463 25.08 230.068 25.08ZM231.172 26.136V35H228.932V26.136H231.172ZM236.777 35.144C236.052 35.144 235.401 35.016 234.825 34.76C234.249 34.4933 233.791 34.136 233.449 33.688C233.119 33.24 232.937 32.744 232.905 32.2H235.161C235.204 32.5413 235.369 32.824 235.657 33.048C235.956 33.272 236.324 33.384 236.761 33.384C237.188 33.384 237.519 33.2987 237.753 33.128C237.999 32.9573 238.121 32.7387 238.121 32.472C238.121 32.184 237.972 31.9707 237.673 31.832C237.385 31.6827 236.921 31.5227 236.281 31.352C235.62 31.192 235.076 31.0267 234.649 30.856C234.233 30.6853 233.871 30.424 233.561 30.072C233.263 29.72 233.113 29.2453 233.113 28.648C233.113 28.1573 233.252 27.7093 233.529 27.304C233.817 26.8987 234.223 26.5787 234.745 26.344C235.279 26.1093 235.903 25.992 236.617 25.992C237.673 25.992 238.516 26.2587 239.145 26.792C239.775 27.3147 240.121 28.024 240.185 28.92H238.041C238.009 28.568 237.86 28.2907 237.593 28.088C237.337 27.8747 236.991 27.768 236.553 27.768C236.148 27.768 235.833 27.8427 235.609 27.992C235.396 28.1413 235.289 28.3493 235.289 28.616C235.289 28.9147 235.439 29.144 235.737 29.304C236.036 29.4533 236.5 29.608 237.129 29.768C237.769 29.928 238.297 30.0933 238.713 30.264C239.129 30.4347 239.487 30.7013 239.785 31.064C240.095 31.416 240.255 31.8853 240.265 32.472C240.265 32.984 240.121 33.4427 239.833 33.848C239.556 34.2533 239.151 34.5733 238.617 34.808C238.095 35.032 237.481 35.144 236.777 35.144ZM244.712 27.976V32.264C244.712 32.5627 244.781 32.7813 244.92 32.92C245.069 33.048 245.315 33.112 245.656 33.112H246.696V35H245.288C243.4 35 242.456 34.0827 242.456 32.248V27.976H241.4V26.136H242.456V23.944H244.712V26.136H246.696V27.976H244.712ZM249.299 35.112C248.894 35.112 248.558 34.9893 248.291 34.744C248.035 34.488 247.907 34.1733 247.907 33.8C247.907 33.4267 248.035 33.1173 248.291 32.872C248.558 32.616 248.894 32.488 249.299 32.488C249.694 32.488 250.019 32.616 250.275 32.872C250.531 33.1173 250.659 33.4267 250.659 33.8C250.659 34.1733 250.531 34.488 250.275 34.744C250.019 34.9893 249.694 35.112 249.299 35.112Z" fill="#343434"/>
<rect x="172" y="65" width="132" height="45" rx="4" fill="#D6F2FF"/>
<path d="M217.43 82V76.8281C217.43 75.9583 217.107 75.5234 216.461 75.5234C216.138 75.5234 215.828 75.6536 215.531 75.9141C215.24 76.1745 214.93 76.5286 214.602 76.9766V82H212.695V74.0625H214.344L214.391 75.2344C214.552 75.0312 214.719 74.8464 214.891 74.6797C215.068 74.513 215.258 74.3724 215.461 74.2578C215.664 74.138 215.883 74.0469 216.117 73.9844C216.352 73.9219 216.615 73.8906 216.906 73.8906C217.312 73.8906 217.667 73.9583 217.969 74.0938C218.271 74.224 218.523 74.4115 218.727 74.6562C218.93 74.8958 219.081 75.1875 219.18 75.5312C219.284 75.8698 219.336 76.25 219.336 76.6719V82H217.43ZM227.094 82V76.5938C227.094 76.3958 227.089 76.224 227.078 76.0781C227.068 75.9271 227.047 75.8021 227.016 75.7031C226.984 75.6042 226.938 75.5312 226.875 75.4844C226.818 75.4323 226.737 75.4062 226.633 75.4062C226.471 75.4062 226.312 75.5156 226.156 75.7344C226 75.9531 225.823 76.3255 225.625 76.8516V82H223.992V76.5938C223.992 76.3958 223.987 76.224 223.977 76.0781C223.966 75.9271 223.945 75.8021 223.914 75.7031C223.883 75.6042 223.836 75.5312 223.773 75.4844C223.711 75.4323 223.628 75.4062 223.523 75.4062C223.388 75.4062 223.237 75.5156 223.07 75.7344C222.904 75.9531 222.719 76.3255 222.516 76.8516V82H220.867V74.0625H222.281L222.312 75.2188C222.427 74.9844 222.542 74.7839 222.656 74.6172C222.771 74.4505 222.893 74.3151 223.023 74.2109C223.154 74.1016 223.292 74.0234 223.438 73.9766C223.589 73.9297 223.758 73.9062 223.945 73.9062C224.388 73.9062 224.724 74.0234 224.953 74.2578C225.188 74.487 225.32 74.8073 225.352 75.2188C225.477 74.9844 225.599 74.7839 225.719 74.6172C225.844 74.4505 225.971 74.3151 226.102 74.2109C226.237 74.1016 226.38 74.0234 226.531 73.9766C226.688 73.9297 226.859 73.9062 227.047 73.9062C227.625 73.9062 228.052 74.1094 228.328 74.5156C228.604 74.9167 228.742 75.513 228.742 76.3047V82H227.094ZM236.836 79.6641C236.836 80.1172 236.734 80.5052 236.531 80.8281C236.333 81.1458 236.068 81.4062 235.734 81.6094C235.406 81.8073 235.031 81.9505 234.609 82.0391C234.193 82.1328 233.766 82.1797 233.328 82.1797C232.745 82.1797 232.219 82.151 231.75 82.0938C231.281 82.0417 230.839 81.9635 230.422 81.8594V80.1406C230.911 80.3438 231.398 80.4922 231.883 80.5859C232.372 80.6745 232.833 80.7188 233.266 80.7188C233.766 80.7188 234.138 80.6406 234.383 80.4844C234.633 80.3229 234.758 80.1146 234.758 79.8594C234.758 79.7396 234.732 79.6302 234.68 79.5312C234.628 79.4323 234.529 79.3385 234.383 79.25C234.242 79.1562 234.042 79.0625 233.781 78.9688C233.521 78.8698 233.18 78.7604 232.758 78.6406C232.367 78.5312 232.023 78.4089 231.727 78.2734C231.435 78.1328 231.193 77.9688 231 77.7812C230.807 77.5938 230.661 77.3776 230.562 77.1328C230.469 76.8828 230.422 76.5911 230.422 76.2578C230.422 75.9349 230.495 75.6302 230.641 75.3438C230.786 75.0573 231.003 74.8073 231.289 74.5938C231.581 74.375 231.943 74.2031 232.375 74.0781C232.807 73.9531 233.312 73.8906 233.891 73.8906C234.391 73.8906 234.833 73.9167 235.219 73.9688C235.604 74.0208 235.945 74.0781 236.242 74.1406V75.6953C235.789 75.5495 235.362 75.4479 234.961 75.3906C234.565 75.3281 234.172 75.2969 233.781 75.2969C233.391 75.2969 233.076 75.3672 232.836 75.5078C232.602 75.6484 232.484 75.8438 232.484 76.0938C232.484 76.2135 232.508 76.3203 232.555 76.4141C232.602 76.5078 232.693 76.599 232.828 76.6875C232.969 76.776 233.161 76.8698 233.406 76.9688C233.656 77.0625 233.984 77.1667 234.391 77.2812C234.849 77.4115 235.234 77.5521 235.547 77.7031C235.859 77.849 236.109 78.0156 236.297 78.2031C236.49 78.3906 236.628 78.6042 236.711 78.8438C236.794 79.0833 236.836 79.3568 236.836 79.6641ZM241.648 72.4453H239.406V70.9609H243.602V80.5156H245.891V82H239.133V80.5156H241.648V72.4453ZM252.555 71.8906C252.555 72.0625 252.523 72.224 252.461 72.375C252.398 72.526 252.31 72.6589 252.195 72.7734C252.086 72.8828 251.956 72.9714 251.805 73.0391C251.654 73.1016 251.49 73.1328 251.312 73.1328C251.135 73.1328 250.969 73.1016 250.812 73.0391C250.661 72.9714 250.529 72.8828 250.414 72.7734C250.305 72.6589 250.219 72.526 250.156 72.375C250.094 72.224 250.062 72.0625 250.062 71.8906C250.062 71.7188 250.094 71.5573 250.156 71.4062C250.219 71.2552 250.305 71.1224 250.414 71.0078C250.529 70.8932 250.661 70.8047 250.812 70.7422C250.969 70.6745 251.135 70.6406 251.312 70.6406C251.49 70.6406 251.654 70.6745 251.805 70.7422C251.956 70.8047 252.086 70.8932 252.195 71.0078C252.31 71.1224 252.398 71.2552 252.461 71.4062C252.523 71.5573 252.555 71.7188 252.555 71.8906ZM250.445 75.5469H248.203V74.0625H252.398V80.5156H254.688V82H247.93V80.5156H250.445V75.5469ZM263.82 77.8906C263.82 78.6198 263.716 79.25 263.508 79.7812C263.305 80.3125 263.018 80.7552 262.648 81.1094C262.284 81.4583 261.852 81.7188 261.352 81.8906C260.852 82.0573 260.307 82.1406 259.719 82.1406C259.141 82.1406 258.602 82.0964 258.102 82.0078C257.607 81.9245 257.133 81.8099 256.68 81.6641V70.9609H258.586V73.5547L258.508 75.1172C258.794 74.7474 259.128 74.4505 259.508 74.2266C259.893 74.0026 260.354 73.8906 260.891 73.8906C261.359 73.8906 261.776 73.9844 262.141 74.1719C262.505 74.3594 262.81 74.6276 263.055 74.9766C263.305 75.3203 263.495 75.7396 263.625 76.2344C263.755 76.724 263.82 77.276 263.82 77.8906ZM261.82 77.9688C261.82 77.5312 261.789 77.1589 261.727 76.8516C261.664 76.5443 261.573 76.2917 261.453 76.0938C261.339 75.8958 261.195 75.7526 261.023 75.6641C260.857 75.5703 260.664 75.5234 260.445 75.5234C260.122 75.5234 259.812 75.6536 259.516 75.9141C259.224 76.1745 258.914 76.5286 258.586 76.9766V80.4453C258.737 80.5026 258.922 80.5495 259.141 80.5859C259.365 80.6224 259.591 80.6406 259.82 80.6406C260.122 80.6406 260.396 80.5781 260.641 80.4531C260.891 80.3281 261.102 80.151 261.273 79.9219C261.451 79.6927 261.586 79.4141 261.68 79.0859C261.773 78.7526 261.82 78.3802 261.82 77.9688ZM192.708 95.568C192.708 94.6507 192.894 93.8507 193.268 93.168C193.641 92.4747 194.158 91.9413 194.82 91.568C195.481 91.184 196.238 90.992 197.092 90.992C198.19 90.992 199.097 91.2693 199.812 91.824C200.537 92.368 201.022 93.136 201.268 94.128H198.852C198.724 93.744 198.505 93.4453 198.196 93.232C197.897 93.008 197.524 92.896 197.076 92.896C196.436 92.896 195.929 93.1307 195.556 93.6C195.182 94.0587 194.996 94.7147 194.996 95.568C194.996 96.4107 195.182 97.0667 195.556 97.536C195.929 97.9947 196.436 98.224 197.076 98.224C197.982 98.224 198.574 97.8187 198.852 97.008H201.268C201.022 97.968 200.537 98.7307 199.812 99.296C199.086 99.8613 198.18 100.144 197.092 100.144C196.238 100.144 195.481 99.9573 194.82 99.584C194.158 99.2 193.641 98.6667 193.268 97.984C192.894 97.2907 192.708 96.4853 192.708 95.568ZM206.845 100.144C205.991 100.144 205.223 99.9573 204.541 99.584C203.858 99.2 203.319 98.6613 202.925 97.968C202.541 97.2747 202.349 96.4747 202.349 95.568C202.349 94.6613 202.546 93.8613 202.941 93.168C203.346 92.4747 203.895 91.9413 204.589 91.568C205.282 91.184 206.055 90.992 206.909 90.992C207.762 90.992 208.535 91.184 209.229 91.568C209.922 91.9413 210.466 92.4747 210.861 93.168C211.266 93.8613 211.469 94.6613 211.469 95.568C211.469 96.4747 211.261 97.2747 210.845 97.968C210.439 98.6613 209.885 99.2 209.181 99.584C208.487 99.9573 207.709 100.144 206.845 100.144ZM206.845 98.192C207.25 98.192 207.629 98.096 207.981 97.904C208.343 97.7013 208.631 97.4027 208.845 97.008C209.058 96.6133 209.165 96.1333 209.165 95.568C209.165 94.7253 208.941 94.08 208.493 93.632C208.055 93.1733 207.517 92.944 206.877 92.944C206.237 92.944 205.698 93.1733 205.261 93.632C204.834 94.08 204.621 94.7253 204.621 95.568C204.621 96.4107 204.829 97.0613 205.245 97.52C205.671 97.968 206.205 98.192 206.845 98.192ZM216.504 100.144C215.778 100.144 215.128 100.016 214.552 99.76C213.976 99.4933 213.517 99.136 213.176 98.688C212.845 98.24 212.664 97.744 212.632 97.2H214.888C214.93 97.5413 215.096 97.824 215.384 98.048C215.682 98.272 216.05 98.384 216.488 98.384C216.914 98.384 217.245 98.2987 217.48 98.128C217.725 97.9573 217.848 97.7387 217.848 97.472C217.848 97.184 217.698 96.9707 217.4 96.832C217.112 96.6827 216.648 96.5227 216.008 96.352C215.346 96.192 214.802 96.0267 214.376 95.856C213.96 95.6853 213.597 95.424 213.288 95.072C212.989 94.72 212.84 94.2453 212.84 93.648C212.84 93.1573 212.978 92.7093 213.256 92.304C213.544 91.8987 213.949 91.5787 214.472 91.344C215.005 91.1093 215.629 90.992 216.344 90.992C217.4 90.992 218.242 91.2587 218.872 91.792C219.501 92.3147 219.848 93.024 219.912 93.92H217.768C217.736 93.568 217.586 93.2907 217.32 93.088C217.064 92.8747 216.717 92.768 216.28 92.768C215.874 92.768 215.56 92.8427 215.336 92.992C215.122 93.1413 215.016 93.3493 215.016 93.616C215.016 93.9147 215.165 94.144 215.464 94.304C215.762 94.4533 216.226 94.608 216.856 94.768C217.496 94.928 218.024 95.0933 218.44 95.264C218.856 95.4347 219.213 95.7013 219.512 96.064C219.821 96.416 219.981 96.8853 219.992 97.472C219.992 97.984 219.848 98.4427 219.56 98.848C219.282 99.2533 218.877 99.5733 218.344 99.808C217.821 100.032 217.208 100.144 216.504 100.144ZM222.967 90.08C222.572 90.08 222.241 89.9573 221.975 89.712C221.719 89.456 221.591 89.1413 221.591 88.768C221.591 88.3947 221.719 88.0853 221.975 87.84C222.241 87.584 222.572 87.456 222.967 87.456C223.361 87.456 223.687 87.584 223.943 87.84C224.209 88.0853 224.343 88.3947 224.343 88.768C224.343 89.1413 224.209 89.456 223.943 89.712C223.687 89.9573 223.361 90.08 222.967 90.08ZM224.071 91.136V100H221.831V91.136H224.071ZM231.196 91.008C232.252 91.008 233.105 91.344 233.756 92.016C234.406 92.6773 234.732 93.6053 234.732 94.8V100H232.492V95.104C232.492 94.4 232.316 93.8613 231.964 93.488C231.612 93.104 231.132 92.912 230.524 92.912C229.905 92.912 229.414 93.104 229.052 93.488C228.7 93.8613 228.524 94.4 228.524 95.104V100H226.284V91.136H228.524V92.24C228.822 91.856 229.201 91.5573 229.66 91.344C230.129 91.12 230.641 91.008 231.196 91.008ZM245.102 95.376C245.102 95.696 245.08 95.984 245.038 96.24H238.558C238.611 96.88 238.835 97.3813 239.23 97.744C239.624 98.1067 240.11 98.288 240.686 98.288C241.518 98.288 242.11 97.9307 242.462 97.216H244.878C244.622 98.0693 244.131 98.7733 243.406 99.328C242.68 99.872 241.79 100.144 240.734 100.144C239.88 100.144 239.112 99.9573 238.43 99.584C237.758 99.2 237.23 98.6613 236.846 97.968C236.472 97.2747 236.286 96.4747 236.286 95.568C236.286 94.6507 236.472 93.8453 236.846 93.152C237.219 92.4587 237.742 91.9253 238.414 91.552C239.086 91.1787 239.859 90.992 240.734 90.992C241.576 90.992 242.328 91.1733 242.99 91.536C243.662 91.8987 244.179 92.416 244.542 93.088C244.915 93.7493 245.102 94.512 245.102 95.376ZM242.782 94.736C242.771 94.16 242.563 93.7013 242.158 93.36C241.752 93.008 241.256 92.832 240.67 92.832C240.115 92.832 239.646 93.0027 239.262 93.344C238.888 93.6747 238.659 94.1387 238.574 94.736H242.782ZM249.973 95.536C249.973 94.64 250.149 93.8453 250.501 93.152C250.864 92.4587 251.355 91.9253 251.973 91.552C252.592 91.1787 253.28 90.992 254.037 90.992C254.613 90.992 255.163 91.12 255.685 91.376C256.208 91.6213 256.624 91.952 256.933 92.368V88.16H259.205V100H256.933V98.688C256.656 99.1253 256.267 99.4773 255.765 99.744C255.264 100.011 254.683 100.144 254.021 100.144C253.275 100.144 252.592 99.952 251.973 99.568C251.355 99.184 250.864 98.6453 250.501 97.952C250.149 97.248 249.973 96.4427 249.973 95.536ZM256.949 95.568C256.949 95.024 256.843 94.56 256.629 94.176C256.416 93.7813 256.128 93.4827 255.765 93.28C255.403 93.0667 255.013 92.96 254.597 92.96C254.181 92.96 253.797 93.0613 253.445 93.264C253.093 93.4667 252.805 93.7653 252.581 94.16C252.368 94.544 252.261 95.0027 252.261 95.536C252.261 96.0693 252.368 96.5387 252.581 96.944C252.805 97.3387 253.093 97.6427 253.445 97.856C253.808 98.0693 254.192 98.176 254.597 98.176C255.013 98.176 255.403 98.0747 255.765 97.872C256.128 97.6587 256.416 97.36 256.629 96.976C256.843 96.5813 256.949 96.112 256.949 95.568ZM262.529 90.08C262.134 90.08 261.804 89.9573 261.537 89.712C261.281 89.456 261.153 89.1413 261.153 88.768C261.153 88.3947 261.281 88.0853 261.537 87.84C261.804 87.584 262.134 87.456 262.529 87.456C262.924 87.456 263.249 87.584 263.505 87.84C263.772 88.0853 263.905 88.3947 263.905 88.768C263.905 89.1413 263.772 89.456 263.505 89.712C263.249 89.9573 262.924 90.08 262.529 90.08ZM263.633 91.136V100H261.393V91.136H263.633ZM269.238 100.144C268.513 100.144 267.862 100.016 267.286 99.76C266.71 99.4933 266.252 99.136 265.91 98.688C265.58 98.24 265.398 97.744 265.366 97.2H267.622C267.665 97.5413 267.83 97.824 268.118 98.048C268.417 98.272 268.785 98.384 269.222 98.384C269.649 98.384 269.98 98.2987 270.214 98.128C270.46 97.9573 270.582 97.7387 270.582 97.472C270.582 97.184 270.433 96.9707 270.134 96.832C269.846 96.6827 269.382 96.5227 268.742 96.352C268.081 96.192 267.537 96.0267 267.11 95.856C266.694 95.6853 266.332 95.424 266.022 95.072C265.724 94.72 265.574 94.2453 265.574 93.648C265.574 93.1573 265.713 92.7093 265.99 92.304C266.278 91.8987 266.684 91.5787 267.206 91.344C267.74 91.1093 268.364 90.992 269.078 90.992C270.134 90.992 270.977 91.2587 271.606 91.792C272.236 92.3147 272.582 93.024 272.646 93.92H270.502C270.47 93.568 270.321 93.2907 270.054 93.088C269.798 92.8747 269.452 92.768 269.014 92.768C268.609 92.768 268.294 92.8427 268.07 92.992C267.857 93.1413 267.75 93.3493 267.75 93.616C267.75 93.9147 267.9 94.144 268.198 94.304C268.497 94.4533 268.961 94.608 269.59 94.768C270.23 94.928 270.758 95.0933 271.174 95.264C271.59 95.4347 271.948 95.7013 272.246 96.064C272.556 96.416 272.716 96.8853 272.726 97.472C272.726 97.984 272.582 98.4427 272.294 98.848C272.017 99.2533 271.612 99.5733 271.078 99.808C270.556 100.032 269.942 100.144 269.238 100.144ZM277.173 92.976V97.264C277.173 97.5627 277.242 97.7813 277.381 97.92C277.53 98.048 277.776 98.112 278.117 98.112H279.157V100H277.749C275.861 100 274.917 99.0827 274.917 97.248V92.976H273.861V91.136H274.917V88.944H277.173V91.136H279.157V92.976H277.173ZM281.76 100.112C281.355 100.112 281.019 99.9893 280.752 99.744C280.496 99.488 280.368 99.1733 280.368 98.8C280.368 98.4267 280.496 98.1173 280.752 97.872C281.019 97.616 281.355 97.488 281.76 97.488C282.155 97.488 282.48 97.616 282.736 97.872C282.992 98.1173 283.12 98.4267 283.12 98.8C283.12 99.1733 282.992 99.488 282.736 99.744C282.48 99.9893 282.155 100.112 281.76 100.112Z" fill="#343434"/>
<path d="M363.797 15.832V27H361.557V15.832H363.797ZM369.914 15.832C371.088 15.832 372.117 16.0613 373.002 16.52C373.898 16.9787 374.586 17.6347 375.066 18.488C375.557 19.3307 375.802 20.312 375.802 21.432C375.802 22.552 375.557 23.5333 375.066 24.376C374.586 25.208 373.898 25.8533 373.002 26.312C372.117 26.7707 371.088 27 369.914 27H366.01V15.832H369.914ZM369.834 25.096C371.008 25.096 371.914 24.776 372.554 24.136C373.194 23.496 373.514 22.5947 373.514 21.432C373.514 20.2693 373.194 19.3627 372.554 18.712C371.914 18.0507 371.008 17.72 369.834 17.72H368.25V25.096H369.834ZM387.479 27.64V29.768H378.087V27.64H387.479ZM392.36 25.224H396.04V27H390.12V15.832H392.36V25.224ZM397.911 24.472C398.935 23.6187 399.751 22.9093 400.359 22.344C400.967 21.768 401.474 21.1707 401.879 20.552C402.285 19.9333 402.487 19.3253 402.487 18.728C402.487 18.184 402.359 17.7573 402.103 17.448C401.847 17.1387 401.453 16.984 400.919 16.984C400.386 16.984 399.975 17.1653 399.687 17.528C399.399 17.88 399.25 18.3653 399.239 18.984H397.063C397.106 17.704 397.485 16.7333 398.199 16.072C398.925 15.4107 399.842 15.08 400.951 15.08C402.167 15.08 403.101 15.4053 403.751 16.056C404.402 16.696 404.727 17.544 404.727 18.6C404.727 19.432 404.503 20.2267 404.055 20.984C403.607 21.7413 403.095 22.4027 402.519 22.968C401.943 23.5227 401.191 24.1947 400.263 24.984H404.983V26.84H397.079V25.176L397.911 24.472Z" fill="#F3F3F3"/>
<path d="M363.836 84.832V96H361.596V84.832H363.836ZM369.953 84.832C371.127 84.832 372.156 85.0613 373.041 85.52C373.937 85.9787 374.625 86.6347 375.105 87.488C375.596 88.3307 375.841 89.312 375.841 90.432C375.841 91.552 375.596 92.5333 375.105 93.376C374.625 94.208 373.937 94.8533 373.041 95.312C372.156 95.7707 371.127 96 369.953 96H366.049V84.832H369.953ZM369.873 94.096C371.047 94.096 371.953 93.776 372.593 93.136C373.233 92.496 373.553 91.5947 373.553 90.432C373.553 89.2693 373.233 88.3627 372.593 87.712C371.953 87.0507 371.047 86.72 369.873 86.72H368.289V94.096H369.873ZM387.518 96.64V98.768H378.126V96.64H387.518ZM389.583 91.568C389.583 90.6507 389.769 89.8507 390.143 89.168C390.516 88.4747 391.033 87.9413 391.695 87.568C392.356 87.184 393.113 86.992 393.967 86.992C395.065 86.992 395.972 87.2693 396.687 87.824C397.412 88.368 397.897 89.136 398.143 90.128H395.727C395.599 89.744 395.38 89.4453 395.071 89.232C394.772 89.008 394.399 88.896 393.951 88.896C393.311 88.896 392.804 89.1307 392.431 89.6C392.057 90.0587 391.871 90.7147 391.871 91.568C391.871 92.4107 392.057 93.0667 392.431 93.536C392.804 93.9947 393.311 94.224 393.951 94.224C394.857 94.224 395.449 93.8187 395.727 93.008H398.143C397.897 93.968 397.412 94.7307 396.687 95.296C395.961 95.8613 395.055 96.144 393.967 96.144C393.113 96.144 392.356 95.9573 391.695 95.584C391.033 95.2 390.516 94.6667 390.143 93.984C389.769 93.2907 389.583 92.4853 389.583 91.568ZM403.72 96.144C402.866 96.144 402.098 95.9573 401.416 95.584C400.733 95.2 400.194 94.6613 399.8 93.968C399.416 93.2747 399.224 92.4747 399.224 91.568C399.224 90.6613 399.421 89.8613 399.816 89.168C400.221 88.4747 400.77 87.9413 401.464 87.568C402.157 87.184 402.93 86.992 403.784 86.992C404.637 86.992 405.41 87.184 406.104 87.568C406.797 87.9413 407.341 88.4747 407.736 89.168C408.141 89.8613 408.344 90.6613 408.344 91.568C408.344 92.4747 408.136 93.2747 407.72 93.968C407.314 94.6613 406.76 95.2 406.056 95.584C405.362 95.9573 404.584 96.144 403.72 96.144ZM403.72 94.192C404.125 94.192 404.504 94.096 404.856 93.904C405.218 93.7013 405.506 93.4027 405.72 93.008C405.933 92.6133 406.04 92.1333 406.04 91.568C406.04 90.7253 405.816 90.08 405.368 89.632C404.93 89.1733 404.392 88.944 403.752 88.944C403.112 88.944 402.573 89.1733 402.136 89.632C401.709 90.08 401.496 90.7253 401.496 91.568C401.496 92.4107 401.704 93.0613 402.12 93.52C402.546 93.968 403.08 94.192 403.72 94.192ZM413.379 96.144C412.653 96.144 412.003 96.016 411.427 95.76C410.851 95.4933 410.392 95.136 410.051 94.688C409.72 94.24 409.539 93.744 409.507 93.2H411.763C411.805 93.5413 411.971 93.824 412.259 94.048C412.557 94.272 412.925 94.384 413.363 94.384C413.789 94.384 414.12 94.2987 414.355 94.128C414.6 93.9573 414.723 93.7387 414.723 93.472C414.723 93.184 414.573 92.9707 414.275 92.832C413.987 92.6827 413.523 92.5227 412.883 92.352C412.221 92.192 411.677 92.0267 411.251 91.856C410.835 91.6853 410.472 91.424 410.163 91.072C409.864 90.72 409.715 90.2453 409.715 89.648C409.715 89.1573 409.853 88.7093 410.131 88.304C410.419 87.8987 410.824 87.5787 411.347 87.344C411.88 87.1093 412.504 86.992 413.219 86.992C414.275 86.992 415.117 87.2587 415.747 87.792C416.376 88.3147 416.723 89.024 416.787 89.92H414.643C414.611 89.568 414.461 89.2907 414.195 89.088C413.939 88.8747 413.592 88.768 413.155 88.768C412.749 88.768 412.435 88.8427 412.211 88.992C411.997 89.1413 411.891 89.3493 411.891 89.616C411.891 89.9147 412.04 90.144 412.339 90.304C412.637 90.4533 413.101 90.608 413.731 90.768C414.371 90.928 414.899 91.0933 415.315 91.264C415.731 91.4347 416.088 91.7013 416.387 92.064C416.696 92.416 416.856 92.8853 416.867 93.472C416.867 93.984 416.723 94.4427 416.435 94.848C416.157 95.2533 415.752 95.5733 415.219 95.808C414.696 96.032 414.083 96.144 413.379 96.144ZM419.842 86.08C419.447 86.08 419.116 85.9573 418.85 85.712C418.594 85.456 418.466 85.1413 418.466 84.768C418.466 84.3947 418.594 84.0853 418.85 83.84C419.116 83.584 419.447 83.456 419.842 83.456C420.236 83.456 420.562 83.584 420.818 83.84C421.084 84.0853 421.218 84.3947 421.218 84.768C421.218 85.1413 421.084 85.456 420.818 85.712C420.562 85.9573 420.236 86.08 419.842 86.08ZM420.946 87.136V96H418.706V87.136H420.946ZM428.071 87.008C429.127 87.008 429.98 87.344 430.631 88.016C431.281 88.6773 431.607 89.6053 431.607 90.8V96H429.367V91.104C429.367 90.4 429.191 89.8613 428.839 89.488C428.487 89.104 428.007 88.912 427.399 88.912C426.78 88.912 426.289 89.104 425.927 89.488C425.575 89.8613 425.399 90.4 425.399 91.104V96H423.159V87.136H425.399V88.24C425.697 87.856 426.076 87.5573 426.535 87.344C427.004 87.12 427.516 87.008 428.071 87.008ZM441.977 91.376C441.977 91.696 441.955 91.984 441.913 92.24H435.433C435.486 92.88 435.71 93.3813 436.105 93.744C436.499 94.1067 436.985 94.288 437.561 94.288C438.393 94.288 438.985 93.9307 439.337 93.216H441.753C441.497 94.0693 441.006 94.7733 440.281 95.328C439.555 95.872 438.665 96.144 437.609 96.144C436.755 96.144 435.987 95.9573 435.305 95.584C434.633 95.2 434.105 94.6613 433.721 93.968C433.347 93.2747 433.161 92.4747 433.161 91.568C433.161 90.6507 433.347 89.8453 433.721 89.152C434.094 88.4587 434.617 87.9253 435.289 87.552C435.961 87.1787 436.734 86.992 437.609 86.992C438.451 86.992 439.203 87.1733 439.865 87.536C440.537 87.8987 441.054 88.416 441.417 89.088C441.79 89.7493 441.977 90.512 441.977 91.376ZM439.657 90.736C439.646 90.16 439.438 89.7013 439.033 89.36C438.627 89.008 438.131 88.832 437.545 88.832C436.99 88.832 436.521 89.0027 436.137 89.344C435.763 89.6747 435.534 90.1387 435.449 90.736H439.657Z" fill="#F3F3F3"/>
<path d="M464 54.0645C462.371 54.6876 461.281 55.6049 460.729 56.8165C460.178 57.9934 459.902 59.3435 459.902 60.8666C459.902 62.459 460.065 64.6398 460.391 67.4091C460.416 67.6861 460.504 68.6034 460.654 70.1611C460.805 71.7189 460.88 73.2074 460.88 74.6267C460.88 77.1537 460.404 79.0057 459.451 80.1826C458.524 81.3942 457.208 82 455.504 82H454V79.923H455.278C456.556 79.923 457.521 79.4903 458.173 78.6249C458.85 77.7941 459.188 76.4267 459.188 74.5228C459.188 73.4497 459.138 72.2728 459.038 70.9919C458.937 69.6765 458.825 68.413 458.699 67.2014C458.574 66.0937 458.461 64.9687 458.361 63.8263C458.286 62.684 458.248 61.6801 458.248 60.8147C458.248 58.8415 458.599 57.1799 459.301 55.8299C460.028 54.4452 461.13 53.5106 462.609 53.026V52.9221C461.13 52.4375 460.028 51.5201 459.301 50.1701C458.599 48.8201 458.248 47.1585 458.248 45.1853C458.248 44.3199 458.286 43.316 458.361 42.1737C458.461 41.0313 458.574 39.9063 458.699 38.7986C458.825 37.587 458.937 36.3408 459.038 35.06C459.138 33.7446 459.188 32.5503 459.188 31.4772C459.188 29.5733 458.85 28.2059 458.173 27.3751C457.521 26.5097 456.556 26.077 455.278 26.077H454V24H455.504C457.208 24 458.524 24.6058 459.451 25.8174C460.404 26.9943 460.88 28.8463 460.88 31.3733C460.88 32.7926 460.805 34.2811 460.654 35.8389C460.504 37.3966 460.416 38.3139 460.391 38.5909C460.065 41.3602 459.902 43.541 459.902 45.1334C459.902 46.6565 460.178 48.0239 460.729 49.2355C461.281 50.4124 462.371 51.3124 464 51.9355V54.0645Z" fill="#F3F3F3"/>
<path d="M172.384 23.8839C172.872 23.3957 172.872 22.6043 172.384 22.1161L164.429 14.1612C163.941 13.673 163.149 13.673 162.661 14.1612C162.173 14.6493 162.173 15.4408 162.661 15.9289L169.732 23L162.661 30.0711C162.173 30.5592 162.173 31.3507 162.661 31.8388C163.149 32.327 163.941 32.327 164.429 31.8388L172.384 23.8839ZM139.5 90H138.25V91.25H139.5V90ZM172.384 90.8839C172.872 90.3957 172.872 89.6043 172.384 89.1161L164.429 81.1612C163.941 80.673 163.149 80.673 162.661 81.1612C162.173 81.6493 162.173 82.4408 162.661 82.9289L169.732 90L162.661 97.0711C162.173 97.5592 162.173 98.3507 162.661 98.8388C163.149 99.327 163.941 99.327 164.429 98.8388L172.384 90.8839ZM124 24.25H124.969V21.75H124V24.25ZM126.906 24.25H128.844V21.75H126.906V24.25ZM130.781 24.25H132.719V21.75H130.781V24.25ZM134.656 24.25H136.594V21.75H134.656V24.25ZM138.531 24.25H139.5V21.75H138.531V24.25ZM139.5 24.25H140.5V21.75H139.5V24.25ZM142.5 24.25H144.5V21.75H142.5V24.25ZM146.5 24.25H148.5V21.75H146.5V24.25ZM150.5 24.25H152.5V21.75H150.5V24.25ZM154.5 24.25H156.5V21.75H154.5V24.25ZM158.5 24.25H160.5V21.75H158.5V24.25ZM162.5 24.25H164.5V21.75H162.5V24.25ZM166.5 24.25H168.5V21.75H166.5V24.25ZM170.5 24.25H171.5V21.75H170.5V24.25ZM138.25 23V23.9853H140.75V23H138.25ZM138.25 25.9559V27.9265H140.75V25.9559H138.25ZM138.25 29.8971V31.8676H140.75V29.8971H138.25ZM138.25 33.8382V35.8088H140.75V33.8382H138.25ZM138.25 37.7794V39.75H140.75V37.7794H138.25ZM138.25 41.7206V43.6912H140.75V41.7206H138.25ZM138.25 45.6618V47.6324H140.75V45.6618H138.25ZM138.25 49.6029V51.5735H140.75V49.6029H138.25ZM138.25 53.5441V55.5147H140.75V53.5441H138.25ZM138.25 57.4853V59.4559H140.75V57.4853H138.25ZM138.25 61.4265V63.3971H140.75V61.4265H138.25ZM138.25 65.3677V67.3382H140.75V65.3677H138.25ZM138.25 69.3088V71.2794H140.75V69.3088H138.25ZM138.25 73.25V75.2206H140.75V73.25H138.25ZM138.25 77.1912V79.1618H140.75V77.1912H138.25ZM138.25 81.1324V83.103H140.75V81.1324H138.25ZM138.25 85.0735V87.0441H140.75V85.0735H138.25ZM138.25 89.0147V90H140.75V89.0147H138.25ZM139.5 91.25H140.5V88.75H139.5V91.25ZM142.5 91.25H144.5V88.75H142.5V91.25ZM146.5 91.25H148.5V88.75H146.5V91.25ZM150.5 91.25H152.5V88.75H150.5V91.25ZM154.5 91.25H156.5V88.75H154.5V91.25ZM158.5 91.25H160.5V88.75H158.5V91.25ZM162.5 91.25H164.5V88.75H162.5V91.25ZM166.5 91.25H168.5V88.75H166.5V91.25ZM170.5 91.25H171.5V88.75H170.5V91.25Z" fill="#F3F3F3"/>
<path d="M349.884 21.8839C350.372 21.3957 350.372 20.6043 349.884 20.1161L341.929 12.1612C341.441 11.673 340.649 11.673 340.161 12.1612C339.673 12.6493 339.673 13.4408 340.161 13.9289L347.232 21L340.161 28.0711C339.673 28.5592 339.673 29.3507 340.161 29.8388C340.649 30.327 341.441 30.327 341.929 29.8388L349.884 21.8839ZM276.5 22.25H277.507V19.75H276.5V22.25ZM279.521 22.25H281.535V19.75H279.521V22.25ZM283.549 22.25H285.562V19.75H283.549V22.25ZM287.576 22.25H289.59V19.75H287.576V22.25ZM291.604 22.25H293.618V19.75H291.604V22.25ZM295.632 22.25H297.646V19.75H295.632V22.25ZM299.66 22.25H301.674V19.75H299.66V22.25ZM303.688 22.25H305.701V19.75H303.688V22.25ZM307.715 22.25H309.729V19.75H307.715V22.25ZM311.743 22.25H313.757V19.75H311.743V22.25ZM315.771 22.25H317.785V19.75H315.771V22.25ZM319.799 22.25H321.813V19.75H319.799V22.25ZM323.826 22.25H325.84V19.75H323.826V22.25ZM327.854 22.25H329.868V19.75H327.854V22.25ZM331.882 22.25H333.896V19.75H331.882V22.25ZM335.91 22.25H337.924V19.75H335.91V22.25ZM339.938 22.25H341.951V19.75H339.938V22.25ZM343.965 22.25H345.979V19.75H343.965V22.25ZM347.993 22.25H349V19.75H347.993V22.25Z" fill="#F3F3F3"/>
<path d="M349.884 88.8839C350.372 88.3957 350.372 87.6043 349.884 87.1161L341.929 79.1612C341.441 78.673 340.649 78.673 340.161 79.1612C339.673 79.6493 339.673 80.4408 340.161 80.9289L347.232 88L340.161 95.0711C339.673 95.5592 339.673 96.3507 340.161 96.8388C340.649 97.327 341.441 97.327 341.929 96.8388L349.884 88.8839ZM304 89.25H305.023V86.75H304V89.25ZM307.068 89.25H309.114V86.75H307.068V89.25ZM311.159 89.25H313.205V86.75H311.159V89.25ZM315.25 89.25H317.295V86.75H315.25V89.25ZM319.341 89.25H321.386V86.75H319.341V89.25ZM323.432 89.25H325.477V86.75H323.432V89.25ZM327.523 89.25H329.568V86.75H327.523V89.25ZM331.614 89.25H333.659V86.75H331.614V89.25ZM335.705 89.25H337.75V86.75H335.705V89.25ZM339.795 89.25H341.841V86.75H339.795V89.25ZM343.886 89.25H345.932V86.75H343.886V89.25ZM347.977 89.25H349V86.75H347.977V89.25Z" fill="#F3F3F3"/>
<path d="M486.758 16.8906C486.758 17.0625 486.727 17.224 486.664 17.375C486.602 17.526 486.513 17.6589 486.398 17.7734C486.289 17.8828 486.159 17.9714 486.008 18.0391C485.857 18.1016 485.693 18.1328 485.516 18.1328C485.339 18.1328 485.172 18.1016 485.016 18.0391C484.865 17.9714 484.732 17.8828 484.617 17.7734C484.508 17.6589 484.422 17.526 484.359 17.375C484.297 17.224 484.266 17.0625 484.266 16.8906C484.266 16.7188 484.297 16.5573 484.359 16.4062C484.422 16.2552 484.508 16.1224 484.617 16.0078C484.732 15.8932 484.865 15.8047 485.016 15.7422C485.172 15.6745 485.339 15.6406 485.516 15.6406C485.693 15.6406 485.857 15.6745 486.008 15.7422C486.159 15.8047 486.289 15.8932 486.398 16.0078C486.513 16.1224 486.602 16.2552 486.664 16.4062C486.727 16.5573 486.758 16.7188 486.758 16.8906ZM484.648 20.5469H482.406V19.0625H486.602V25.5156H488.891V27H482.133V25.5156H484.648V20.5469ZM498.008 17.5781C497.779 17.5052 497.505 17.4453 497.188 17.3984C496.875 17.3464 496.555 17.3203 496.227 17.3203C496.003 17.3203 495.794 17.3516 495.602 17.4141C495.409 17.4714 495.242 17.5651 495.102 17.6953C494.961 17.8255 494.849 17.9922 494.766 18.1953C494.688 18.3932 494.648 18.6354 494.648 18.9219V20.2031H497.766V21.6875H494.648V27H492.727V21.6875H490.422V20.2031H492.727V19C492.727 18.4375 492.807 17.9557 492.969 17.5547C493.135 17.1484 493.367 16.8177 493.664 16.5625C493.966 16.3021 494.328 16.112 494.75 15.9922C495.172 15.8724 495.643 15.8125 496.164 15.8125C496.508 15.8125 496.833 15.8359 497.141 15.8828C497.453 15.9245 497.742 15.9766 498.008 16.0391V17.5781Z" fill="#6EC8A5"/>
<path d="M509.243 15.88V27H507.419V15.88H509.243ZM515.27 15.88C516.454 15.88 517.488 16.1093 518.374 16.568C519.27 17.016 519.958 17.6667 520.438 18.52C520.928 19.3627 521.174 20.3493 521.174 21.48C521.174 22.6107 520.928 23.592 520.438 24.424C519.958 25.256 519.27 25.896 518.374 26.344C517.488 26.7813 516.454 27 515.27 27H511.638V15.88H515.27ZM515.27 25.512C516.571 25.512 517.568 25.16 518.262 24.456C518.955 23.752 519.302 22.76 519.302 21.48C519.302 20.1893 518.955 19.1813 518.262 18.456C517.568 17.7307 516.571 17.368 515.27 17.368H513.462V25.512H515.27ZM532.725 27.64V29.336H523.797V27.64H532.725ZM537.571 25.528H541.331V27H535.747V15.88H537.571V25.528ZM543.624 24.52C544.648 23.6347 545.454 22.9093 546.04 22.344C546.638 21.768 547.134 21.1707 547.528 20.552C547.923 19.9333 548.12 19.3147 548.12 18.696C548.12 18.056 547.966 17.5547 547.656 17.192C547.358 16.8293 546.883 16.648 546.232 16.648C545.603 16.648 545.112 16.8507 544.76 17.256C544.419 17.6507 544.238 18.184 544.216 18.856H542.456C542.488 17.64 542.851 16.712 543.544 16.072C544.248 15.4213 545.139 15.096 546.216 15.096C547.379 15.096 548.286 15.416 548.936 16.056C549.598 16.696 549.928 17.5493 549.928 18.616C549.928 19.384 549.731 20.1253 549.336 20.84C548.952 21.544 548.488 22.1787 547.944 22.744C547.411 23.2987 546.728 23.944 545.896 24.68L545.176 25.32H550.248V26.84H542.472V25.512L543.624 24.52ZM558.535 15.88L558.327 23.64H556.807L556.599 15.88H558.535ZM557.623 27.112C557.292 27.112 557.015 27 556.791 26.776C556.567 26.552 556.455 26.2747 556.455 25.944C556.455 25.6133 556.567 25.336 556.791 25.112C557.015 24.888 557.292 24.776 557.623 24.776C557.943 24.776 558.215 24.888 558.439 25.112C558.663 25.336 558.775 25.6133 558.775 25.944C558.775 26.2747 558.663 26.552 558.439 26.776C558.215 27 557.943 27.112 557.623 27.112ZM570.636 18.632V20.168H562.124V18.632H570.636ZM570.636 22.264V23.8H562.124V22.264H570.636ZM579.758 15.88V27H577.934V15.88H579.758ZM585.785 15.88C586.969 15.88 588.004 16.1093 588.889 16.568C589.785 17.016 590.473 17.6667 590.953 18.52C591.444 19.3627 591.689 20.3493 591.689 21.48C591.689 22.6107 591.444 23.592 590.953 24.424C590.473 25.256 589.785 25.896 588.889 26.344C588.004 26.7813 586.969 27 585.785 27H582.153V15.88H585.785ZM585.785 25.512C587.086 25.512 588.084 25.16 588.777 24.456C589.47 23.752 589.817 22.76 589.817 21.48C589.817 20.1893 589.47 19.1813 588.777 18.456C588.084 17.7307 587.086 17.368 585.785 17.368H583.977V25.512H585.785ZM603.241 27.64V29.336H594.313V27.64H603.241ZM605.655 22.584C605.655 21.6773 605.836 20.8827 606.199 20.2C606.572 19.5067 607.084 18.9733 607.735 18.6C608.385 18.2267 609.132 18.04 609.975 18.04C611.041 18.04 611.921 18.296 612.615 18.808C613.319 19.3093 613.793 20.0293 614.039 20.968H612.071C611.911 20.5307 611.655 20.1893 611.303 19.944C610.951 19.6987 610.508 19.576 609.975 19.576C609.228 19.576 608.631 19.8427 608.183 20.376C607.745 20.8987 607.527 21.6347 607.527 22.584C607.527 23.5333 607.745 24.2747 608.183 24.808C608.631 25.3413 609.228 25.608 609.975 25.608C611.031 25.608 611.729 25.144 612.071 24.216H614.039C613.783 25.112 613.303 25.8267 612.599 26.36C611.895 26.8827 611.02 27.144 609.975 27.144C609.132 27.144 608.385 26.9573 607.735 26.584C607.084 26.2 606.572 25.6667 606.199 24.984C605.836 24.2907 605.655 23.4907 605.655 22.584ZM619.68 27.144C618.848 27.144 618.096 26.9573 617.424 26.584C616.752 26.2 616.224 25.6667 615.84 24.984C615.456 24.2907 615.264 23.4907 615.264 22.584C615.264 21.688 615.462 20.8933 615.856 20.2C616.251 19.5067 616.79 18.9733 617.472 18.6C618.155 18.2267 618.918 18.04 619.76 18.04C620.603 18.04 621.366 18.2267 622.048 18.6C622.731 18.9733 623.27 19.5067 623.664 20.2C624.059 20.8933 624.256 21.688 624.256 22.584C624.256 23.48 624.054 24.2747 623.648 24.968C623.243 25.6613 622.688 26.2 621.984 26.584C621.291 26.9573 620.523 27.144 619.68 27.144ZM619.68 25.56C620.15 25.56 620.587 25.448 620.992 25.224C621.408 25 621.744 24.664 622 24.216C622.256 23.768 622.384 23.224 622.384 22.584C622.384 21.944 622.262 21.4053 622.016 20.968C621.771 20.52 621.446 20.184 621.04 19.96C620.635 19.736 620.198 19.624 619.728 19.624C619.259 19.624 618.822 19.736 618.416 19.96C618.022 20.184 617.707 20.52 617.472 20.968C617.238 21.4053 617.12 21.944 617.12 22.584C617.12 23.5333 617.36 24.2693 617.84 24.792C618.331 25.304 618.944 25.56 619.68 25.56ZM629.259 27.144C628.566 27.144 627.942 27.0213 627.387 26.776C626.843 26.52 626.411 26.1787 626.091 25.752C625.771 25.3147 625.601 24.8293 625.579 24.296H627.467C627.499 24.6693 627.675 24.984 627.995 25.24C628.326 25.4853 628.737 25.608 629.227 25.608C629.739 25.608 630.134 25.512 630.411 25.32C630.699 25.1173 630.843 24.8613 630.843 24.552C630.843 24.2213 630.683 23.976 630.363 23.816C630.054 23.656 629.558 23.48 628.875 23.288C628.214 23.1067 627.675 22.9307 627.259 22.76C626.843 22.5893 626.481 22.328 626.171 21.976C625.873 21.624 625.723 21.16 625.723 20.584C625.723 20.1147 625.862 19.688 626.139 19.304C626.417 18.9093 626.811 18.6 627.323 18.376C627.846 18.152 628.443 18.04 629.115 18.04C630.118 18.04 630.923 18.296 631.531 18.808C632.15 19.3093 632.481 19.9973 632.523 20.872H630.699C630.667 20.4773 630.507 20.1627 630.219 19.928C629.931 19.6933 629.542 19.576 629.051 19.576C628.571 19.576 628.203 19.6667 627.947 19.848C627.691 20.0293 627.563 20.2693 627.563 20.568C627.563 20.8027 627.649 21 627.819 21.16C627.99 21.32 628.198 21.448 628.443 21.544C628.689 21.6293 629.051 21.7413 629.531 21.88C630.171 22.0507 630.694 22.2267 631.099 22.408C631.515 22.5787 631.873 22.8347 632.171 23.176C632.47 23.5173 632.625 23.9707 632.635 24.536C632.635 25.0373 632.497 25.4853 632.219 25.88C631.942 26.2747 631.547 26.584 631.035 26.808C630.534 27.032 629.942 27.144 629.259 27.144ZM635.534 17.016C635.204 17.016 634.926 16.904 634.702 16.68C634.478 16.456 634.366 16.1787 634.366 15.848C634.366 15.5173 634.478 15.24 634.702 15.016C634.926 14.792 635.204 14.68 635.534 14.68C635.854 14.68 636.126 14.792 636.35 15.016C636.574 15.24 636.686 15.5173 636.686 15.848C636.686 16.1787 636.574 16.456 636.35 16.68C636.126 16.904 635.854 17.016 635.534 17.016ZM636.43 18.184V27H634.606V18.184H636.43ZM643.273 18.04C643.966 18.04 644.585 18.184 645.129 18.472C645.684 18.76 646.116 19.1867 646.425 19.752C646.734 20.3173 646.889 21 646.889 21.8V27H645.081V22.072C645.081 21.2827 644.884 20.68 644.489 20.264C644.094 19.8373 643.556 19.624 642.873 19.624C642.19 19.624 641.646 19.8373 641.241 20.264C640.846 20.68 640.649 21.2827 640.649 22.072V27H638.825V18.184H640.649V19.192C640.948 18.8293 641.326 18.5467 641.785 18.344C642.254 18.1413 642.75 18.04 643.273 18.04ZM657.296 22.376C657.296 22.7067 657.274 23.0053 657.232 23.272H650.496C650.549 23.976 650.81 24.5413 651.28 24.968C651.749 25.3947 652.325 25.608 653.008 25.608C653.989 25.608 654.682 25.1973 655.088 24.376H657.056C656.789 25.1867 656.304 25.8533 655.6 26.376C654.906 26.888 654.042 27.144 653.008 27.144C652.165 27.144 651.408 26.9573 650.736 26.584C650.074 26.2 649.552 25.6667 649.168 24.984C648.794 24.2907 648.608 23.4907 648.608 22.584C648.608 21.6773 648.789 20.8827 649.152 20.2C649.525 19.5067 650.042 18.9733 650.704 18.6C651.376 18.2267 652.144 18.04 653.008 18.04C653.84 18.04 654.581 18.2213 655.232 18.584C655.882 18.9467 656.389 19.4587 656.752 20.12C657.114 20.7707 657.296 21.5227 657.296 22.376ZM655.392 21.8C655.381 21.128 655.141 20.5893 654.672 20.184C654.202 19.7787 653.621 19.576 652.928 19.576C652.298 19.576 651.76 19.7787 651.312 20.184C650.864 20.5787 650.597 21.1173 650.512 21.8H655.392ZM659.827 27.112C659.496 27.112 659.219 27 658.995 26.776C658.771 26.552 658.659 26.2747 658.659 25.944C658.659 25.6133 658.771 25.336 658.995 25.112C659.219 24.888 659.496 24.776 659.827 24.776C660.147 24.776 660.419 24.888 660.643 25.112C660.867 25.336 660.979 25.6133 660.979 25.944C660.979 26.2747 660.867 26.552 660.643 26.776C660.419 27 660.147 27.112 659.827 27.112ZM659.827 20.392C659.496 20.392 659.219 20.28 658.995 20.056C658.771 19.832 658.659 19.5547 658.659 19.224C658.659 18.8933 658.771 18.616 658.995 18.392C659.219 18.168 659.496 18.056 659.827 18.056C660.147 18.056 660.419 18.168 660.643 18.392C660.867 18.616 660.979 18.8933 660.979 19.224C660.979 19.5547 660.867 19.832 660.643 20.056C660.419 20.28 660.147 20.392 659.827 20.392Z" fill="#F3F3F3"/>
<path d="M489.133 67.4219C489.133 67.5521 489.128 67.7214 489.117 67.9297C489.112 68.138 489.102 68.3333 489.086 68.5156H483.867C483.867 68.8646 483.919 69.1719 484.023 69.4375C484.133 69.7031 484.284 69.9271 484.477 70.1094C484.674 70.2865 484.909 70.4219 485.18 70.5156C485.456 70.6094 485.76 70.6562 486.094 70.6562C486.479 70.6562 486.891 70.6276 487.328 70.5703C487.771 70.5078 488.229 70.4089 488.703 70.2734V71.7891C488.5 71.8464 488.279 71.8984 488.039 71.9453C487.799 71.9922 487.555 72.0339 487.305 72.0703C487.055 72.1068 486.802 72.1328 486.547 72.1484C486.292 72.1693 486.044 72.1797 485.805 72.1797C485.201 72.1797 484.659 72.0938 484.18 71.9219C483.701 71.75 483.294 71.4974 482.961 71.1641C482.628 70.8255 482.372 70.4089 482.195 69.9141C482.018 69.4193 481.93 68.8464 481.93 68.1953C481.93 67.5495 482.018 66.9635 482.195 66.4375C482.372 65.9062 482.622 65.4531 482.945 65.0781C483.268 64.6979 483.659 64.4062 484.117 64.2031C484.581 63.9948 485.096 63.8906 485.664 63.8906C486.227 63.8906 486.724 63.9792 487.156 64.1562C487.589 64.3281 487.951 64.5703 488.242 64.8828C488.534 65.1953 488.755 65.5677 488.906 66C489.057 66.4323 489.133 66.9062 489.133 67.4219ZM487.195 67.1484C487.201 66.8359 487.161 66.5651 487.078 66.3359C486.995 66.1016 486.88 65.9089 486.734 65.7578C486.594 65.6068 486.427 65.4948 486.234 65.4219C486.047 65.349 485.844 65.3125 485.625 65.3125C485.146 65.3125 484.753 65.474 484.445 65.7969C484.138 66.1146 483.956 66.5651 483.898 67.1484H487.195ZM493.578 62.4453H491.336V60.9609H495.531V70.5156H497.82V72H491.062V70.5156H493.578V62.4453ZM506.359 69.6641C506.359 70.1172 506.258 70.5052 506.055 70.8281C505.857 71.1458 505.591 71.4062 505.258 71.6094C504.93 71.8073 504.555 71.9505 504.133 72.0391C503.716 72.1328 503.289 72.1797 502.852 72.1797C502.268 72.1797 501.742 72.151 501.273 72.0938C500.805 72.0417 500.362 71.9635 499.945 71.8594V70.1406C500.435 70.3438 500.922 70.4922 501.406 70.5859C501.896 70.6745 502.357 70.7188 502.789 70.7188C503.289 70.7188 503.661 70.6406 503.906 70.4844C504.156 70.3229 504.281 70.1146 504.281 69.8594C504.281 69.7396 504.255 69.6302 504.203 69.5312C504.151 69.4323 504.052 69.3385 503.906 69.25C503.766 69.1562 503.565 69.0625 503.305 68.9688C503.044 68.8698 502.703 68.7604 502.281 68.6406C501.891 68.5312 501.547 68.4089 501.25 68.2734C500.958 68.1328 500.716 67.9688 500.523 67.7812C500.331 67.5938 500.185 67.3776 500.086 67.1328C499.992 66.8828 499.945 66.5911 499.945 66.2578C499.945 65.9349 500.018 65.6302 500.164 65.3438C500.31 65.0573 500.526 64.8073 500.812 64.5938C501.104 64.375 501.466 64.2031 501.898 64.0781C502.331 63.9531 502.836 63.8906 503.414 63.8906C503.914 63.8906 504.357 63.9167 504.742 63.9688C505.128 64.0208 505.469 64.0781 505.766 64.1406V65.6953C505.312 65.5495 504.885 65.4479 504.484 65.3906C504.089 65.3281 503.695 65.2969 503.305 65.2969C502.914 65.2969 502.599 65.3672 502.359 65.5078C502.125 65.6484 502.008 65.8438 502.008 66.0938C502.008 66.2135 502.031 66.3203 502.078 66.4141C502.125 66.5078 502.216 66.599 502.352 66.6875C502.492 66.776 502.685 66.8698 502.93 66.9688C503.18 67.0625 503.508 67.1667 503.914 67.2812C504.372 67.4115 504.758 67.5521 505.07 67.7031C505.383 67.849 505.633 68.0156 505.82 68.2031C506.013 68.3906 506.151 68.6042 506.234 68.8438C506.318 69.0833 506.359 69.3568 506.359 69.6641ZM515.523 67.4219C515.523 67.5521 515.518 67.7214 515.508 67.9297C515.503 68.138 515.492 68.3333 515.477 68.5156H510.258C510.258 68.8646 510.31 69.1719 510.414 69.4375C510.523 69.7031 510.674 69.9271 510.867 70.1094C511.065 70.2865 511.299 70.4219 511.57 70.5156C511.846 70.6094 512.151 70.6562 512.484 70.6562C512.87 70.6562 513.281 70.6276 513.719 70.5703C514.161 70.5078 514.62 70.4089 515.094 70.2734V71.7891C514.891 71.8464 514.669 71.8984 514.43 71.9453C514.19 71.9922 513.945 72.0339 513.695 72.0703C513.445 72.1068 513.193 72.1328 512.938 72.1484C512.682 72.1693 512.435 72.1797 512.195 72.1797C511.591 72.1797 511.049 72.0938 510.57 71.9219C510.091 71.75 509.685 71.4974 509.352 71.1641C509.018 70.8255 508.763 70.4089 508.586 69.9141C508.409 69.4193 508.32 68.8464 508.32 68.1953C508.32 67.5495 508.409 66.9635 508.586 66.4375C508.763 65.9062 509.013 65.4531 509.336 65.0781C509.659 64.6979 510.049 64.4062 510.508 64.2031C510.971 63.9948 511.487 63.8906 512.055 63.8906C512.617 63.8906 513.115 63.9792 513.547 64.1562C513.979 64.3281 514.341 64.5703 514.633 64.8828C514.924 65.1953 515.146 65.5677 515.297 66C515.448 66.4323 515.523 66.9062 515.523 67.4219ZM513.586 67.1484C513.591 66.8359 513.552 66.5651 513.469 66.3359C513.385 66.1016 513.271 65.9089 513.125 65.7578C512.984 65.6068 512.818 65.4948 512.625 65.4219C512.438 65.349 512.234 65.3125 512.016 65.3125C511.536 65.3125 511.143 65.474 510.836 65.7969C510.529 66.1146 510.346 66.5651 510.289 67.1484H513.586Z" fill="#6EC8A5"/>
<path d="M518.592 72.128C518.112 72.128 517.718 71.9893 517.408 71.712C517.11 71.424 516.96 71.072 516.96 70.656C516.96 70.2293 517.11 69.872 517.408 69.584C517.718 69.296 518.112 69.152 518.592 69.152C519.062 69.152 519.446 69.296 519.744 69.584C520.054 69.872 520.208 70.2293 520.208 70.656C520.208 71.072 520.054 71.424 519.744 71.712C519.446 71.9893 519.062 72.128 518.592 72.128ZM518.592 65.616C518.112 65.616 517.718 65.4773 517.408 65.2C517.11 64.912 516.96 64.56 516.96 64.144C516.96 63.7173 517.11 63.36 517.408 63.072C517.718 62.784 518.112 62.64 518.592 62.64C519.062 62.64 519.446 62.784 519.744 63.072C520.054 63.36 520.208 63.7173 520.208 64.144C520.208 64.56 520.054 64.912 519.744 65.2C519.446 65.4773 519.062 65.616 518.592 65.616Z" fill="#F3F3F3"/>
<path d="M504.248 40.0625V45.2344C504.248 45.6667 504.328 45.9948 504.49 46.2188C504.651 46.4375 504.896 46.5469 505.224 46.5469C505.542 46.5469 505.846 46.4167 506.138 46.1562C506.435 45.8906 506.748 45.5339 507.076 45.0859V40.0625H508.982V48H507.333L507.287 46.8281C507.12 47.0312 506.951 47.2161 506.779 47.3828C506.607 47.5495 506.419 47.6927 506.216 47.8125C506.018 47.9271 505.8 48.0156 505.56 48.0781C505.326 48.1458 505.065 48.1797 504.779 48.1797C504.373 48.1797 504.016 48.1146 503.708 47.9844C503.406 47.849 503.154 47.6589 502.951 47.4141C502.748 47.1693 502.594 46.8776 502.49 46.5391C502.391 46.1953 502.341 45.8125 502.341 45.3906V40.0625H504.248ZM516.368 48V42.8281C516.368 41.9583 516.045 41.5234 515.399 41.5234C515.076 41.5234 514.767 41.6536 514.47 41.9141C514.178 42.1745 513.868 42.5286 513.54 42.9766V48H511.634V40.0625H513.282L513.329 41.2344C513.491 41.0312 513.657 40.8464 513.829 40.6797C514.006 40.513 514.196 40.3724 514.399 40.2578C514.603 40.138 514.821 40.0469 515.056 39.9844C515.29 39.9219 515.553 39.8906 515.845 39.8906C516.251 39.8906 516.605 39.9583 516.907 40.0938C517.209 40.224 517.462 40.4115 517.665 40.6562C517.868 40.8958 518.019 41.1875 518.118 41.5312C518.222 41.8698 518.274 42.25 518.274 42.6719V48H516.368ZM525.825 48L522.895 44.0312V48H520.989V36.9609H522.895V43.4219L525.668 40.0625H528.051L524.833 43.6797L528.317 48H525.825ZM534.922 48V42.8281C534.922 41.9583 534.599 41.5234 533.953 41.5234C533.63 41.5234 533.32 41.6536 533.023 41.9141C532.732 42.1745 532.422 42.5286 532.094 42.9766V48H530.188V40.0625H531.836L531.883 41.2344C532.044 41.0312 532.211 40.8464 532.383 40.6797C532.56 40.513 532.75 40.3724 532.953 40.2578C533.156 40.138 533.375 40.0469 533.609 39.9844C533.844 39.9219 534.107 39.8906 534.398 39.8906C534.805 39.8906 535.159 39.9583 535.461 40.0938C535.763 40.224 536.016 40.4115 536.219 40.6562C536.422 40.8958 536.573 41.1875 536.672 41.5312C536.776 41.8698 536.828 42.25 536.828 42.6719V48H534.922ZM546.613 43.9688C546.613 44.5938 546.524 45.1667 546.347 45.6875C546.17 46.2031 545.915 46.6458 545.582 47.0156C545.248 47.3854 544.839 47.6719 544.355 47.875C543.871 48.0781 543.319 48.1797 542.699 48.1797C542.11 48.1797 541.584 48.0938 541.121 47.9219C540.657 47.75 540.264 47.4948 539.941 47.1562C539.618 46.8125 539.371 46.3854 539.199 45.875C539.027 45.3594 538.941 44.7604 538.941 44.0781C538.941 43.4479 539.029 42.875 539.207 42.3594C539.389 41.8438 539.647 41.4036 539.98 41.0391C540.319 40.6745 540.73 40.3932 541.214 40.1953C541.699 39.9922 542.246 39.8906 542.855 39.8906C543.449 39.8906 543.977 39.9792 544.441 40.1562C544.904 40.3281 545.298 40.5859 545.621 40.9297C545.944 41.2734 546.188 41.7005 546.355 42.2109C546.527 42.7161 546.613 43.3021 546.613 43.9688ZM544.628 44.0156C544.628 43.1927 544.472 42.5755 544.16 42.1641C543.852 41.7474 543.397 41.5391 542.792 41.5391C542.459 41.5391 542.175 41.6042 541.941 41.7344C541.707 41.8646 541.514 42.0443 541.363 42.2734C541.212 42.4974 541.1 42.7604 541.027 43.0625C540.959 43.3646 540.925 43.6875 540.925 44.0312C540.925 44.8594 541.092 45.4844 541.425 45.9062C541.759 46.3229 542.214 46.5312 542.792 46.5312C543.11 46.5312 543.386 46.4688 543.621 46.3438C543.855 46.2135 544.045 46.0365 544.191 45.8125C544.337 45.5833 544.446 45.3151 544.519 45.0078C544.592 44.7005 544.628 44.3698 544.628 44.0156ZM555.257 48H553.14L552.296 45.4844L552.038 44.6094L551.78 45.5078L550.968 48H548.843L547.718 40.0625H549.53L550.101 44.5469L550.233 45.7734L550.554 44.6719L551.351 42.2578H552.804L553.655 44.6562L554.023 45.7891L554.171 44.5312L554.648 40.0625H556.374L555.257 48ZM562.753 48V42.8281C562.753 41.9583 562.43 41.5234 561.784 41.5234C561.461 41.5234 561.151 41.6536 560.854 41.9141C560.562 42.1745 560.253 42.5286 559.924 42.9766V48H558.018V40.0625H559.667L559.713 41.2344C559.875 41.0312 560.042 40.8464 560.213 40.6797C560.391 40.513 560.581 40.3724 560.784 40.2578C560.987 40.138 561.206 40.0469 561.44 39.9844C561.674 39.9219 561.937 39.8906 562.229 39.8906C562.635 39.8906 562.989 39.9583 563.292 40.0938C563.594 40.224 563.846 40.4115 564.049 40.6562C564.253 40.8958 564.404 41.1875 564.503 41.5312C564.607 41.8698 564.659 42.25 564.659 42.6719V48H562.753Z" fill="#F1B316"/>
<path d="M502.45 87.3594V85.7891H508.903V87.3594H506.653V94.4141H508.903V96H502.45V94.4141H504.7V87.3594H502.45ZM518.937 90.7656C518.937 91.5573 518.839 92.276 518.641 92.9219C518.448 93.5677 518.143 94.1198 517.727 94.5781C517.315 95.0312 516.786 95.3828 516.141 95.6328C515.495 95.8776 514.721 96 513.82 96H511.227V85.7891H514.25C515.031 85.7891 515.714 85.888 516.297 86.0859C516.885 86.2786 517.375 86.5781 517.766 86.9844C518.156 87.3906 518.448 87.9062 518.641 88.5312C518.839 89.1562 518.937 89.901 518.937 90.7656ZM516.875 90.8906C516.875 90.3385 516.831 89.8464 516.742 89.4141C516.654 88.9818 516.503 88.6172 516.289 88.3203C516.081 88.0182 515.799 87.7891 515.445 87.6328C515.091 87.4766 514.651 87.3984 514.125 87.3984H513.148V94.3906H513.992C514.935 94.3906 515.651 94.1094 516.141 93.5469C516.63 92.9844 516.875 92.099 516.875 90.8906Z" fill="#F1B316"/>
<path d="M534.092 87.632V89.168H525.58V87.632H534.092ZM534.092 91.264V92.8H525.58V91.264H534.092ZM543.215 84.88V96H541.391V84.88H543.215ZM549.242 84.88C550.426 84.88 551.46 85.1093 552.346 85.568C553.242 86.016 553.93 86.6667 554.41 87.52C554.9 88.3627 555.146 89.3493 555.146 90.48C555.146 91.6107 554.9 92.592 554.41 93.424C553.93 94.256 553.242 94.896 552.346 95.344C551.46 95.7813 550.426 96 549.242 96H545.61V84.88H549.242ZM549.242 94.512C550.543 94.512 551.54 94.16 552.234 93.456C552.927 92.752 553.274 91.76 553.274 90.48C553.274 89.1893 552.927 88.1813 552.234 87.456C551.54 86.7307 550.543 86.368 549.242 86.368H547.434V94.512H549.242ZM566.697 96.64V98.336H557.769V96.64H566.697ZM571.543 94.528H575.303V96H569.719V84.88H571.543V94.528ZM577.596 93.52C578.62 92.6347 579.426 91.9093 580.012 91.344C580.61 90.768 581.106 90.1707 581.5 89.552C581.895 88.9333 582.092 88.3147 582.092 87.696C582.092 87.056 581.938 86.5547 581.628 86.192C581.33 85.8293 580.855 85.648 580.204 85.648C579.575 85.648 579.084 85.8507 578.732 86.256C578.391 86.6507 578.21 87.184 578.188 87.856H576.428C576.46 86.64 576.823 85.712 577.516 85.072C578.22 84.4213 579.111 84.096 580.188 84.096C581.351 84.096 582.258 84.416 582.908 85.056C583.57 85.696 583.9 86.5493 583.9 87.616C583.9 88.384 583.703 89.1253 583.308 89.84C582.924 90.544 582.46 91.1787 581.916 91.744C581.383 92.2987 580.7 92.944 579.868 93.68L579.148 94.32H584.22V95.84H576.444V94.512L577.596 93.52ZM599.467 87.632V89.168H590.955V87.632H599.467ZM599.467 91.264V92.8H590.955V91.264H599.467ZM608.59 84.88V96H606.766V84.88H608.59ZM614.617 84.88C615.801 84.88 616.835 85.1093 617.721 85.568C618.617 86.016 619.305 86.6667 619.785 87.52C620.275 88.3627 620.521 89.3493 620.521 90.48C620.521 91.6107 620.275 92.592 619.785 93.424C619.305 94.256 618.617 94.896 617.721 95.344C616.835 95.7813 615.801 96 614.617 96H610.985V84.88H614.617ZM614.617 94.512C615.918 94.512 616.915 94.16 617.609 93.456C618.302 92.752 618.649 91.76 618.649 90.48C618.649 89.1893 618.302 88.1813 617.609 87.456C616.915 86.7307 615.918 86.368 614.617 86.368H612.809V94.512H614.617ZM632.072 96.64V98.336H623.144V96.64H632.072ZM634.486 91.584C634.486 90.6773 634.667 89.8827 635.03 89.2C635.403 88.5067 635.915 87.9733 636.566 87.6C637.217 87.2267 637.963 87.04 638.806 87.04C639.873 87.04 640.753 87.296 641.446 87.808C642.15 88.3093 642.625 89.0293 642.87 89.968H640.902C640.742 89.5307 640.486 89.1893 640.134 88.944C639.782 88.6987 639.339 88.576 638.806 88.576C638.059 88.576 637.462 88.8427 637.014 89.376C636.577 89.8987 636.358 90.6347 636.358 91.584C636.358 92.5333 636.577 93.2747 637.014 93.808C637.462 94.3413 638.059 94.608 638.806 94.608C639.862 94.608 640.561 94.144 640.902 93.216H642.87C642.614 94.112 642.134 94.8267 641.43 95.36C640.726 95.8827 639.851 96.144 638.806 96.144C637.963 96.144 637.217 95.9573 636.566 95.584C635.915 95.2 635.403 94.6667 635.03 93.984C634.667 93.2907 634.486 92.4907 634.486 91.584ZM648.512 96.144C647.68 96.144 646.928 95.9573 646.256 95.584C645.584 95.2 645.056 94.6667 644.672 93.984C644.288 93.2907 644.096 92.4907 644.096 91.584C644.096 90.688 644.293 89.8933 644.688 89.2C645.082 88.5067 645.621 87.9733 646.304 87.6C646.986 87.2267 647.749 87.04 648.592 87.04C649.434 87.04 650.197 87.2267 650.88 87.6C651.562 87.9733 652.101 88.5067 652.496 89.2C652.89 89.8933 653.088 90.688 653.088 91.584C653.088 92.48 652.885 93.2747 652.48 93.968C652.074 94.6613 651.52 95.2 650.816 95.584C650.122 95.9573 649.354 96.144 648.512 96.144ZM648.512 94.56C648.981 94.56 649.418 94.448 649.824 94.224C650.24 94 650.576 93.664 650.832 93.216C651.088 92.768 651.216 92.224 651.216 91.584C651.216 90.944 651.093 90.4053 650.848 89.968C650.602 89.52 650.277 89.184 649.872 88.96C649.466 88.736 649.029 88.624 648.56 88.624C648.09 88.624 647.653 88.736 647.248 88.96C646.853 89.184 646.538 89.52 646.304 89.968C646.069 90.4053 645.952 90.944 645.952 91.584C645.952 92.5333 646.192 93.2693 646.672 93.792C647.162 94.304 647.776 94.56 648.512 94.56ZM658.091 96.144C657.398 96.144 656.774 96.0213 656.219 95.776C655.675 95.52 655.243 95.1787 654.923 94.752C654.603 94.3147 654.432 93.8293 654.411 93.296H656.299C656.331 93.6693 656.507 93.984 656.827 94.24C657.158 94.4853 657.568 94.608 658.059 94.608C658.571 94.608 658.966 94.512 659.243 94.32C659.531 94.1173 659.675 93.8613 659.675 93.552C659.675 93.2213 659.515 92.976 659.195 92.816C658.886 92.656 658.39 92.48 657.707 92.288C657.046 92.1067 656.507 91.9307 656.091 91.76C655.675 91.5893 655.312 91.328 655.003 90.976C654.704 90.624 654.555 90.16 654.555 89.584C654.555 89.1147 654.694 88.688 654.971 88.304C655.248 87.9093 655.643 87.6 656.155 87.376C656.678 87.152 657.275 87.04 657.947 87.04C658.95 87.04 659.755 87.296 660.363 87.808C660.982 88.3093 661.312 88.9973 661.355 89.872H659.531C659.499 89.4773 659.339 89.1627 659.051 88.928C658.763 88.6933 658.374 88.576 657.883 88.576C657.403 88.576 657.035 88.6667 656.779 88.848C656.523 89.0293 656.395 89.2693 656.395 89.568C656.395 89.8027 656.48 90 656.651 90.16C656.822 90.32 657.03 90.448 657.275 90.544C657.52 90.6293 657.883 90.7413 658.363 90.88C659.003 91.0507 659.526 91.2267 659.931 91.408C660.347 91.5787 660.704 91.8347 661.003 92.176C661.302 92.5173 661.456 92.9707 661.467 93.536C661.467 94.0373 661.328 94.4853 661.051 94.88C660.774 95.2747 660.379 95.584 659.867 95.808C659.366 96.032 658.774 96.144 658.091 96.144ZM664.366 86.016C664.035 86.016 663.758 85.904 663.534 85.68C663.31 85.456 663.198 85.1787 663.198 84.848C663.198 84.5173 663.31 84.24 663.534 84.016C663.758 83.792 664.035 83.68 664.366 83.68C664.686 83.68 664.958 83.792 665.182 84.016C665.406 84.24 665.518 84.5173 665.518 84.848C665.518 85.1787 665.406 85.456 665.182 85.68C664.958 85.904 664.686 86.016 664.366 86.016ZM665.262 87.184V96H663.438V87.184H665.262ZM672.105 87.04C672.798 87.04 673.417 87.184 673.961 87.472C674.515 87.76 674.947 88.1867 675.257 88.752C675.566 89.3173 675.721 90 675.721 90.8V96H673.913V91.072C673.913 90.2827 673.715 89.68 673.321 89.264C672.926 88.8373 672.387 88.624 671.705 88.624C671.022 88.624 670.478 88.8373 670.073 89.264C669.678 89.68 669.481 90.2827 669.481 91.072V96H667.657V87.184H669.481V88.192C669.779 87.8293 670.158 87.5467 670.617 87.344C671.086 87.1413 671.582 87.04 672.105 87.04ZM686.127 91.376C686.127 91.7067 686.106 92.0053 686.063 92.272H679.327C679.381 92.976 679.642 93.5413 680.111 93.968C680.581 94.3947 681.157 94.608 681.839 94.608C682.821 94.608 683.514 94.1973 683.919 93.376H685.887C685.621 94.1867 685.135 94.8533 684.431 95.376C683.738 95.888 682.874 96.144 681.839 96.144C680.997 96.144 680.239 95.9573 679.567 95.584C678.906 95.2 678.383 94.6667 677.999 93.984C677.626 93.2907 677.439 92.4907 677.439 91.584C677.439 90.6773 677.621 89.8827 677.983 89.2C678.357 88.5067 678.874 87.9733 679.535 87.6C680.207 87.2267 680.975 87.04 681.839 87.04C682.671 87.04 683.413 87.2213 684.063 87.584C684.714 87.9467 685.221 88.4587 685.583 89.12C685.946 89.7707 686.127 90.5227 686.127 91.376ZM684.223 90.8C684.213 90.128 683.973 89.5893 683.503 89.184C683.034 88.7787 682.453 88.576 681.759 88.576C681.13 88.576 680.591 88.7787 680.143 89.184C679.695 89.5787 679.429 90.1173 679.343 90.8H684.223Z" fill="#F3F3F3"/>
</svg>
