<svg width="477" height="84" viewBox="0 0 477 84" fill="none" xmlns="http://www.w3.org/2000/svg">
<path d="M4.79044 13.876C4.37444 13.876 4.06644 13.956 3.86644 14.116C3.66644 14.276 3.53444 14.544 3.47044 14.92L3.38644 15.388H4.61044L4.41844 16.504H3.19444L2.22244 22H0.842438L1.81444 16.504H1.03444L1.22644 15.388H2.00644L2.09044 14.92C2.22644 14.16 2.52644 13.608 2.99044 13.264C3.45444 12.912 4.11844 12.736 4.98244 12.736L4.79044 13.876ZM8.69081 15.28C9.51481 15.28 10.1708 15.512 10.6588 15.976C11.1548 16.44 11.4028 17.064 11.4028 17.848C11.4028 18.032 11.3828 18.252 11.3428 18.508C11.3108 18.684 11.2548 18.9 11.1748 19.156H6.12281C6.11481 19.212 6.11081 19.296 6.11081 19.408C6.11081 19.88 6.25481 20.256 6.54281 20.536C6.83881 20.816 7.22281 20.956 7.69481 20.956C8.43881 20.956 9.01081 20.648 9.41081 20.032H10.8868C10.5828 20.64 10.1348 21.14 9.54281 21.532C8.95081 21.916 8.26681 22.108 7.49081 22.108C6.93881 22.108 6.45481 22 6.03881 21.784C5.62281 21.568 5.29881 21.26 5.06681 20.86C4.83481 20.452 4.71881 19.976 4.71881 19.432C4.71881 19.2 4.74281 18.952 4.79081 18.688C4.91081 18.008 5.15481 17.412 5.52281 16.9C5.89081 16.38 6.34681 15.98 6.89081 15.7C7.44281 15.42 8.04281 15.28 8.69081 15.28ZM9.97481 18.172C9.99081 18.028 9.99881 17.924 9.99881 17.86C9.99881 17.42 9.85081 17.072 9.55481 16.816C9.26681 16.56 8.89081 16.432 8.42681 16.432C7.93881 16.432 7.49881 16.588 7.10681 16.9C6.71481 17.212 6.44681 17.636 6.30281 18.172H9.97481ZM12.1971 18.664C12.3171 18 12.5571 17.412 12.9171 16.9C13.2851 16.388 13.7331 15.992 14.2611 15.712C14.7891 15.424 15.3411 15.28 15.9171 15.28C16.4371 15.28 16.8731 15.384 17.2251 15.592C17.5771 15.792 17.8411 16.044 18.0171 16.348L18.1851 15.388H19.5651L18.4011 22H17.0211L17.2011 21.016C16.9131 21.328 16.5491 21.588 16.1091 21.796C15.6771 22.004 15.2051 22.108 14.6931 22.108C14.1971 22.108 13.7531 21.996 13.3611 21.772C12.9771 21.548 12.6731 21.232 12.4491 20.824C12.2331 20.408 12.1251 19.932 12.1251 19.396C12.1251 19.156 12.1491 18.912 12.1971 18.664ZM17.6091 18.688C17.6411 18.536 17.6571 18.372 17.6571 18.196C17.6571 17.66 17.4971 17.24 17.1771 16.936C16.8651 16.624 16.4731 16.468 16.0011 16.468C15.6491 16.468 15.3051 16.556 14.9691 16.732C14.6331 16.9 14.3411 17.152 14.0931 17.488C13.8451 17.816 13.6811 18.208 13.6011 18.664C13.5691 18.816 13.5531 18.98 13.5531 19.156C13.5531 19.7 13.7091 20.132 14.0211 20.452C14.3411 20.764 14.7371 20.92 15.2091 20.92C15.5611 20.92 15.9051 20.832 16.2411 20.656C16.5771 20.48 16.8691 20.224 17.1171 19.888C17.3651 19.544 17.5291 19.144 17.6091 18.688ZM22.1179 20.164C22.1019 20.276 22.0939 20.348 22.0939 20.38C22.0939 20.548 22.1459 20.672 22.2499 20.752C22.3539 20.824 22.5259 20.86 22.7659 20.86H23.6059L23.4019 22H22.3219C21.7939 22 21.3899 21.896 21.1099 21.688C20.8299 21.472 20.6899 21.132 20.6899 20.668C20.6899 20.492 20.7059 20.324 20.7379 20.164L21.3859 16.504H20.6059L20.7979 15.388H21.5899L21.8779 13.744H23.2579L22.9699 15.388H24.5659L24.3739 16.504H22.7659L22.1179 20.164ZM31.8147 15.388L30.6507 22H29.2827L29.4147 21.22C29.1507 21.492 28.8307 21.708 28.4547 21.868C28.0867 22.02 27.7067 22.096 27.3147 22.096C26.6187 22.096 26.0627 21.908 25.6467 21.532C25.2307 21.156 25.0227 20.624 25.0227 19.936C25.0227 19.752 25.0427 19.532 25.0827 19.276L25.7667 15.388H27.1227L26.4747 19.072C26.4427 19.296 26.4267 19.456 26.4267 19.552C26.4267 19.992 26.5467 20.328 26.7867 20.56C27.0347 20.792 27.3747 20.908 27.8067 20.908C28.3107 20.908 28.7387 20.76 29.0907 20.464C29.4427 20.16 29.6747 19.724 29.7867 19.156L30.4467 15.388H31.8147ZM34.7837 16.552C35.0557 16.152 35.3757 15.84 35.7437 15.616C36.1197 15.392 36.5357 15.28 36.9917 15.28L36.7397 16.696H36.3917C35.8637 16.696 35.4397 16.828 35.1197 17.092C34.7997 17.356 34.5757 17.812 34.4477 18.46L33.8237 22H32.4557L33.6197 15.388H34.9877L34.7837 16.552ZM41.0932 15.28C41.9172 15.28 42.5732 15.512 43.0612 15.976C43.5572 16.44 43.8052 17.064 43.8052 17.848C43.8052 18.032 43.7852 18.252 43.7452 18.508C43.7132 18.684 43.6572 18.9 43.5772 19.156H38.5252C38.5172 19.212 38.5132 19.296 38.5132 19.408C38.5132 19.88 38.6572 20.256 38.9452 20.536C39.2412 20.816 39.6252 20.956 40.0972 20.956C40.8412 20.956 41.4132 20.648 41.8132 20.032H43.2892C42.9852 20.64 42.5372 21.14 41.9452 21.532C41.3532 21.916 40.6692 22.108 39.8932 22.108C39.3412 22.108 38.8572 22 38.4412 21.784C38.0252 21.568 37.7012 21.26 37.4692 20.86C37.2372 20.452 37.1212 19.976 37.1212 19.432C37.1212 19.2 37.1452 18.952 37.1932 18.688C37.3132 18.008 37.5572 17.412 37.9252 16.9C38.2932 16.38 38.7492 15.98 39.2932 15.7C39.8452 15.42 40.4452 15.28 41.0932 15.28ZM42.3772 18.172C42.3932 18.028 42.4012 17.924 42.4012 17.86C42.4012 17.42 42.2532 17.072 41.9572 16.816C41.6692 16.56 41.2932 16.432 40.8292 16.432C40.3412 16.432 39.9012 16.588 39.5092 16.9C39.1172 17.212 38.8492 17.636 38.7052 18.172H42.3772ZM46.9034 22.108C46.4474 22.108 46.0314 22.032 45.6554 21.88C45.2794 21.72 44.9834 21.5 44.7674 21.22C44.5514 20.932 44.4434 20.604 44.4434 20.236C44.4434 20.172 44.4514 20.084 44.4674 19.972H45.7994C45.7674 20.276 45.8594 20.528 46.0754 20.728C46.2914 20.928 46.5954 21.028 46.9874 21.028C47.3714 21.028 47.6874 20.96 47.9354 20.824C48.1834 20.688 48.3074 20.488 48.3074 20.224C48.3074 20 48.2034 19.82 47.9954 19.684C47.7954 19.548 47.4714 19.396 47.0234 19.228C46.5994 19.06 46.2554 18.904 45.9914 18.76C45.7274 18.616 45.4994 18.42 45.3074 18.172C45.1154 17.916 45.0194 17.6 45.0194 17.224C45.0194 16.84 45.1274 16.504 45.3434 16.216C45.5674 15.92 45.8754 15.692 46.2674 15.532C46.6674 15.364 47.1234 15.28 47.6354 15.28C48.0994 15.28 48.5114 15.36 48.8714 15.52C49.2394 15.672 49.5234 15.892 49.7234 16.18C49.9314 16.46 50.0354 16.784 50.0354 17.152C50.0354 17.264 50.0314 17.348 50.0234 17.404H48.7274C48.7594 17.092 48.6674 16.84 48.4514 16.648C48.2434 16.456 47.9434 16.36 47.5514 16.36C47.2074 16.36 46.9274 16.432 46.7114 16.576C46.5034 16.72 46.3994 16.916 46.3994 17.164C46.3994 17.412 46.5074 17.612 46.7234 17.764C46.9394 17.908 47.2714 18.068 47.7194 18.244C48.1274 18.404 48.4594 18.556 48.7154 18.7C48.9714 18.844 49.1914 19.036 49.3754 19.276C49.5594 19.516 49.6514 19.816 49.6514 20.176C49.6514 20.568 49.5314 20.912 49.2914 21.208C49.0594 21.496 48.7354 21.72 48.3194 21.88C47.9034 22.032 47.4314 22.108 46.9034 22.108Z" fill="#F3F3F3"/>
<rect x="83" width="104" height="36" rx="4" fill="#D6F2FF"/>
<path d="M120.858 14V10.4443C120.858 9.84635 120.636 9.54736 120.192 9.54736C119.97 9.54736 119.757 9.63688 119.553 9.81592C119.352 9.99495 119.139 10.2384 118.914 10.5464V14H117.603V8.54297H118.736L118.769 9.34863C118.88 9.20898 118.994 9.08187 119.112 8.96729C119.234 8.8527 119.365 8.75602 119.504 8.67725C119.644 8.59489 119.794 8.53223 119.956 8.48926C120.117 8.44629 120.298 8.4248 120.498 8.4248C120.777 8.4248 121.021 8.47135 121.229 8.56445C121.436 8.65397 121.61 8.78288 121.75 8.95117C121.889 9.11589 121.993 9.31641 122.061 9.55273C122.133 9.78548 122.168 10.0469 122.168 10.3369V14H120.858ZM127.502 14V10.2832C127.502 10.1471 127.498 10.029 127.491 9.92871C127.484 9.82487 127.47 9.73893 127.448 9.6709C127.427 9.60286 127.395 9.55273 127.352 9.52051C127.312 9.4847 127.257 9.4668 127.185 9.4668C127.074 9.4668 126.965 9.54199 126.857 9.69238C126.75 9.84277 126.628 10.0988 126.492 10.4604V14H125.37V10.2832C125.37 10.1471 125.366 10.029 125.359 9.92871C125.352 9.82487 125.337 9.73893 125.316 9.6709C125.294 9.60286 125.262 9.55273 125.219 9.52051C125.176 9.4847 125.119 9.4668 125.047 9.4668C124.954 9.4668 124.85 9.54199 124.736 9.69238C124.621 9.84277 124.494 10.0988 124.354 10.4604V14H123.221V8.54297H124.193L124.215 9.33789C124.294 9.17676 124.372 9.0389 124.451 8.92432C124.53 8.80973 124.614 8.71663 124.704 8.64502C124.793 8.56982 124.888 8.51611 124.988 8.48389C125.092 8.45166 125.208 8.43555 125.337 8.43555C125.642 8.43555 125.873 8.51611 126.03 8.67725C126.191 8.8348 126.283 9.05501 126.304 9.33789C126.39 9.17676 126.474 9.0389 126.557 8.92432C126.643 8.80973 126.73 8.71663 126.82 8.64502C126.913 8.56982 127.011 8.51611 127.115 8.48389C127.223 8.45166 127.341 8.43555 127.47 8.43555C127.867 8.43555 128.161 8.5752 128.351 8.85449C128.54 9.13021 128.635 9.5402 128.635 10.0845V14H127.502ZM134.2 12.394C134.2 12.7056 134.13 12.9723 133.99 13.1943C133.854 13.4128 133.672 13.5918 133.442 13.7314C133.217 13.8675 132.959 13.966 132.669 14.0269C132.382 14.0913 132.089 14.1235 131.788 14.1235C131.387 14.1235 131.025 14.1038 130.703 14.0645C130.381 14.0286 130.076 13.9749 129.79 13.9033V12.7217C130.127 12.8613 130.461 12.9634 130.794 13.0278C131.131 13.0887 131.448 13.1191 131.745 13.1191C132.089 13.1191 132.345 13.0654 132.513 12.958C132.685 12.847 132.771 12.7038 132.771 12.5283C132.771 12.446 132.753 12.3708 132.717 12.3027C132.681 12.2347 132.613 12.1702 132.513 12.1094C132.417 12.0449 132.279 11.9805 132.1 11.916C131.921 11.848 131.686 11.7728 131.396 11.6904C131.127 11.6152 130.891 11.5311 130.687 11.438C130.486 11.3413 130.32 11.2285 130.188 11.0996C130.055 10.9707 129.955 10.8221 129.887 10.6538C129.822 10.4819 129.79 10.2814 129.79 10.0522C129.79 9.83024 129.84 9.62077 129.94 9.42383C130.041 9.22689 130.189 9.05501 130.386 8.9082C130.587 8.75781 130.836 8.63965 131.133 8.55371C131.43 8.46777 131.777 8.4248 132.175 8.4248C132.519 8.4248 132.823 8.44271 133.088 8.47852C133.353 8.51432 133.587 8.55371 133.792 8.59668V9.66553C133.48 9.56527 133.186 9.49544 132.911 9.45605C132.639 9.41309 132.368 9.3916 132.1 9.3916C131.831 9.3916 131.614 9.43994 131.45 9.53662C131.289 9.6333 131.208 9.76758 131.208 9.93945C131.208 10.0218 131.224 10.0952 131.256 10.1597C131.289 10.2241 131.351 10.2868 131.444 10.3477C131.541 10.4085 131.674 10.473 131.842 10.541C132.014 10.6055 132.239 10.6771 132.519 10.7559C132.834 10.8454 133.099 10.9421 133.313 11.0459C133.528 11.1462 133.7 11.2607 133.829 11.3896C133.962 11.5186 134.056 11.6654 134.114 11.8301C134.171 11.9948 134.2 12.1828 134.2 12.394ZM137.508 7.43115H135.967V6.41064H138.851V12.9795H140.425V14H135.779V12.9795H137.508V7.43115ZM145.006 7.0498C145.006 7.16797 144.985 7.27897 144.942 7.38281C144.899 7.48665 144.838 7.57796 144.759 7.65674C144.684 7.73193 144.595 7.79281 144.491 7.83936C144.387 7.88232 144.274 7.90381 144.152 7.90381C144.031 7.90381 143.916 7.88232 143.809 7.83936C143.705 7.79281 143.613 7.73193 143.535 7.65674C143.459 7.57796 143.4 7.48665 143.357 7.38281C143.314 7.27897 143.293 7.16797 143.293 7.0498C143.293 6.93164 143.314 6.82064 143.357 6.7168C143.4 6.61296 143.459 6.52165 143.535 6.44287C143.613 6.3641 143.705 6.30322 143.809 6.26025C143.916 6.2137 144.031 6.19043 144.152 6.19043C144.274 6.19043 144.387 6.2137 144.491 6.26025C144.595 6.30322 144.684 6.3641 144.759 6.44287C144.838 6.52165 144.899 6.61296 144.942 6.7168C144.985 6.82064 145.006 6.93164 145.006 7.0498ZM143.556 9.56348H142.015V8.54297H144.899V12.9795H146.473V14H141.827V12.9795H143.556V9.56348ZM152.751 11.1748C152.751 11.6761 152.68 12.1094 152.537 12.4746C152.397 12.8398 152.2 13.1442 151.946 13.3877C151.695 13.6276 151.398 13.8066 151.054 13.9248C150.71 14.0394 150.336 14.0967 149.932 14.0967C149.534 14.0967 149.164 14.0662 148.82 14.0054C148.48 13.9481 148.154 13.8693 147.842 13.769V6.41064H149.153V8.19385L149.099 9.26807C149.296 9.01383 149.525 8.80973 149.787 8.65576C150.052 8.50179 150.368 8.4248 150.737 8.4248C151.06 8.4248 151.346 8.48926 151.597 8.61816C151.847 8.74707 152.057 8.93148 152.225 9.17139C152.397 9.40771 152.528 9.69596 152.617 10.0361C152.707 10.3727 152.751 10.7523 152.751 11.1748ZM151.376 11.2285C151.376 10.9277 151.355 10.6717 151.312 10.4604C151.269 10.2492 151.206 10.0755 151.124 9.93945C151.045 9.80339 150.947 9.70492 150.829 9.64404C150.714 9.57959 150.582 9.54736 150.431 9.54736C150.209 9.54736 149.996 9.63688 149.792 9.81592C149.591 9.99495 149.378 10.2384 149.153 10.5464V12.9312C149.257 12.9705 149.384 13.0028 149.534 13.0278C149.688 13.0529 149.844 13.0654 150.001 13.0654C150.209 13.0654 150.397 13.0225 150.565 12.9365C150.737 12.8506 150.882 12.7288 151 12.5713C151.122 12.4137 151.215 12.2222 151.28 11.9966C151.344 11.7674 151.376 11.5114 151.376 11.2285ZM118.489 25.779H121.019V27H116.949V19.322H118.489V25.779ZM122.306 25.262C123.01 24.6753 123.571 24.1877 123.989 23.799C124.407 23.403 124.756 22.9923 125.034 22.567C125.313 22.1417 125.452 21.7237 125.452 21.313C125.452 20.939 125.364 20.6457 125.188 20.433C125.012 20.2203 124.741 20.114 124.374 20.114C124.008 20.114 123.725 20.2387 123.527 20.488C123.329 20.73 123.227 21.0637 123.219 21.489H121.723C121.753 20.609 122.013 19.9417 122.504 19.487C123.003 19.0323 123.634 18.805 124.396 18.805C125.232 18.805 125.874 19.0287 126.321 19.476C126.769 19.916 126.992 20.499 126.992 21.225C126.992 21.797 126.838 22.3433 126.53 22.864C126.222 23.3847 125.87 23.8393 125.474 24.228C125.078 24.6093 124.561 25.0713 123.923 25.614H127.168V26.89H121.734V25.746L122.306 25.262ZM130.54 23.931C130.54 23.315 130.661 22.7687 130.903 22.292C131.152 21.8153 131.489 21.4487 131.915 21.192C132.34 20.9353 132.813 20.807 133.334 20.807C133.73 20.807 134.107 20.895 134.467 21.071C134.826 21.2397 135.112 21.467 135.325 21.753V18.86H136.887V27H135.325V26.098C135.134 26.3987 134.866 26.6407 134.522 26.824C134.177 27.0073 133.777 27.099 133.323 27.099C132.809 27.099 132.34 26.967 131.915 26.703C131.489 26.439 131.152 26.0687 130.903 25.592C130.661 25.108 130.54 24.5543 130.54 23.931ZM135.336 23.953C135.336 23.579 135.262 23.26 135.116 22.996C134.969 22.7247 134.771 22.5193 134.522 22.38C134.272 22.2333 134.005 22.16 133.719 22.16C133.433 22.16 133.169 22.2297 132.927 22.369C132.685 22.5083 132.487 22.7137 132.333 22.985C132.186 23.249 132.113 23.5643 132.113 23.931C132.113 24.2977 132.186 24.6203 132.333 24.899C132.487 25.1703 132.685 25.3793 132.927 25.526C133.176 25.6727 133.44 25.746 133.719 25.746C134.005 25.746 134.272 25.6763 134.522 25.537C134.771 25.3903 134.969 25.185 135.116 24.921C135.262 24.6497 135.336 24.327 135.336 23.953ZM139.172 20.18C138.901 20.18 138.673 20.0957 138.49 19.927C138.314 19.751 138.226 19.5347 138.226 19.278C138.226 19.0213 138.314 18.8087 138.49 18.64C138.673 18.464 138.901 18.376 139.172 18.376C139.443 18.376 139.667 18.464 139.843 18.64C140.026 18.8087 140.118 19.0213 140.118 19.278C140.118 19.5347 140.026 19.751 139.843 19.927C139.667 20.0957 139.443 20.18 139.172 20.18ZM139.931 20.906V27H138.391V20.906H139.931ZM143.784 27.099C143.286 27.099 142.838 27.011 142.442 26.835C142.046 26.6517 141.731 26.406 141.496 26.098C141.269 25.79 141.144 25.449 141.122 25.075H142.673C142.703 25.3097 142.816 25.504 143.014 25.658C143.22 25.812 143.473 25.889 143.773 25.889C144.067 25.889 144.294 25.8303 144.455 25.713C144.624 25.5957 144.708 25.4453 144.708 25.262C144.708 25.064 144.606 24.9173 144.4 24.822C144.202 24.7193 143.883 24.6093 143.443 24.492C142.989 24.382 142.615 24.2683 142.321 24.151C142.035 24.0337 141.786 23.854 141.573 23.612C141.368 23.37 141.265 23.0437 141.265 22.633C141.265 22.2957 141.361 21.9877 141.551 21.709C141.749 21.4303 142.028 21.2103 142.387 21.049C142.754 20.8877 143.183 20.807 143.674 20.807C144.4 20.807 144.98 20.9903 145.412 21.357C145.845 21.7163 146.083 22.204 146.127 22.82H144.653C144.631 22.578 144.529 22.3873 144.345 22.248C144.169 22.1013 143.931 22.028 143.63 22.028C143.352 22.028 143.135 22.0793 142.981 22.182C142.835 22.2847 142.761 22.4277 142.761 22.611C142.761 22.8163 142.864 22.974 143.069 23.084C143.275 23.1867 143.594 23.293 144.026 23.403C144.466 23.513 144.829 23.6267 145.115 23.744C145.401 23.8613 145.647 24.0447 145.852 24.294C146.065 24.536 146.175 24.8587 146.182 25.262C146.182 25.614 146.083 25.9293 145.885 26.208C145.695 26.4867 145.416 26.7067 145.049 26.868C144.69 27.022 144.268 27.099 143.784 27.099ZM149.24 22.171V25.119C149.24 25.3243 149.287 25.4747 149.383 25.57C149.485 25.658 149.654 25.702 149.889 25.702H150.604V27H149.636C148.338 27 147.689 26.3693 147.689 25.108V22.171H146.963V20.906H147.689V19.399H149.24V20.906H150.604V22.171H149.24ZM152.393 27.077C152.114 27.077 151.883 26.9927 151.7 26.824C151.524 26.648 151.436 26.4317 151.436 26.175C151.436 25.9183 151.524 25.7057 151.7 25.537C151.883 25.361 152.114 25.273 152.393 25.273C152.664 25.273 152.888 25.361 153.064 25.537C153.24 25.7057 153.328 25.9183 153.328 26.175C153.328 26.4317 153.24 26.648 153.064 26.824C152.888 26.9927 152.664 27.077 152.393 27.077Z" fill="#343434"/>
<rect x="83" y="48" width="104" height="36" rx="4" fill="#D6F2FF"/>
<path d="M120.858 62V58.4443C120.858 57.8464 120.636 57.5474 120.192 57.5474C119.97 57.5474 119.757 57.6369 119.553 57.8159C119.352 57.995 119.139 58.2384 118.914 58.5464V62H117.603V56.543H118.736L118.769 57.3486C118.88 57.209 118.994 57.0819 119.112 56.9673C119.234 56.8527 119.365 56.756 119.504 56.6772C119.644 56.5949 119.794 56.5322 119.956 56.4893C120.117 56.4463 120.298 56.4248 120.498 56.4248C120.777 56.4248 121.021 56.4714 121.229 56.5645C121.436 56.654 121.61 56.7829 121.75 56.9512C121.889 57.1159 121.993 57.3164 122.061 57.5527C122.133 57.7855 122.168 58.0469 122.168 58.3369V62H120.858ZM127.502 62V58.2832C127.502 58.1471 127.498 58.029 127.491 57.9287C127.484 57.8249 127.47 57.7389 127.448 57.6709C127.427 57.6029 127.395 57.5527 127.352 57.5205C127.312 57.4847 127.257 57.4668 127.185 57.4668C127.074 57.4668 126.965 57.542 126.857 57.6924C126.75 57.8428 126.628 58.0988 126.492 58.4604V62H125.37V58.2832C125.37 58.1471 125.366 58.029 125.359 57.9287C125.352 57.8249 125.337 57.7389 125.316 57.6709C125.294 57.6029 125.262 57.5527 125.219 57.5205C125.176 57.4847 125.119 57.4668 125.047 57.4668C124.954 57.4668 124.85 57.542 124.736 57.6924C124.621 57.8428 124.494 58.0988 124.354 58.4604V62H123.221V56.543H124.193L124.215 57.3379C124.294 57.1768 124.372 57.0389 124.451 56.9243C124.53 56.8097 124.614 56.7166 124.704 56.645C124.793 56.5698 124.888 56.5161 124.988 56.4839C125.092 56.4517 125.208 56.4355 125.337 56.4355C125.642 56.4355 125.873 56.5161 126.03 56.6772C126.191 56.8348 126.283 57.055 126.304 57.3379C126.39 57.1768 126.474 57.0389 126.557 56.9243C126.643 56.8097 126.73 56.7166 126.82 56.645C126.913 56.5698 127.011 56.5161 127.115 56.4839C127.223 56.4517 127.341 56.4355 127.47 56.4355C127.867 56.4355 128.161 56.5752 128.351 56.8545C128.54 57.1302 128.635 57.5402 128.635 58.0845V62H127.502ZM134.2 60.394C134.2 60.7056 134.13 60.9723 133.99 61.1943C133.854 61.4128 133.672 61.5918 133.442 61.7314C133.217 61.8675 132.959 61.966 132.669 62.0269C132.382 62.0913 132.089 62.1235 131.788 62.1235C131.387 62.1235 131.025 62.1038 130.703 62.0645C130.381 62.0286 130.076 61.9749 129.79 61.9033V60.7217C130.127 60.8613 130.461 60.9634 130.794 61.0278C131.131 61.0887 131.448 61.1191 131.745 61.1191C132.089 61.1191 132.345 61.0654 132.513 60.958C132.685 60.847 132.771 60.7038 132.771 60.5283C132.771 60.446 132.753 60.3708 132.717 60.3027C132.681 60.2347 132.613 60.1702 132.513 60.1094C132.417 60.0449 132.279 59.9805 132.1 59.916C131.921 59.848 131.686 59.7728 131.396 59.6904C131.127 59.6152 130.891 59.5311 130.687 59.438C130.486 59.3413 130.32 59.2285 130.188 59.0996C130.055 58.9707 129.955 58.8221 129.887 58.6538C129.822 58.4819 129.79 58.2814 129.79 58.0522C129.79 57.8302 129.84 57.6208 129.94 57.4238C130.041 57.2269 130.189 57.055 130.386 56.9082C130.587 56.7578 130.836 56.6396 131.133 56.5537C131.43 56.4678 131.777 56.4248 132.175 56.4248C132.519 56.4248 132.823 56.4427 133.088 56.4785C133.353 56.5143 133.587 56.5537 133.792 56.5967V57.6655C133.48 57.5653 133.186 57.4954 132.911 57.4561C132.639 57.4131 132.368 57.3916 132.1 57.3916C131.831 57.3916 131.614 57.4399 131.45 57.5366C131.289 57.6333 131.208 57.7676 131.208 57.9395C131.208 58.0218 131.224 58.0952 131.256 58.1597C131.289 58.2241 131.351 58.2868 131.444 58.3477C131.541 58.4085 131.674 58.473 131.842 58.541C132.014 58.6055 132.239 58.6771 132.519 58.7559C132.834 58.8454 133.099 58.9421 133.313 59.0459C133.528 59.1462 133.7 59.2607 133.829 59.3896C133.962 59.5186 134.056 59.6654 134.114 59.8301C134.171 59.9948 134.2 60.1828 134.2 60.394ZM137.508 55.4312H135.967V54.4106H138.851V60.9795H140.425V62H135.779V60.9795H137.508V55.4312ZM145.006 55.0498C145.006 55.168 144.985 55.279 144.942 55.3828C144.899 55.4867 144.838 55.578 144.759 55.6567C144.684 55.7319 144.595 55.7928 144.491 55.8394C144.387 55.8823 144.274 55.9038 144.152 55.9038C144.031 55.9038 143.916 55.8823 143.809 55.8394C143.705 55.7928 143.613 55.7319 143.535 55.6567C143.459 55.578 143.4 55.4867 143.357 55.3828C143.314 55.279 143.293 55.168 143.293 55.0498C143.293 54.9316 143.314 54.8206 143.357 54.7168C143.4 54.613 143.459 54.5216 143.535 54.4429C143.613 54.3641 143.705 54.3032 143.809 54.2603C143.916 54.2137 144.031 54.1904 144.152 54.1904C144.274 54.1904 144.387 54.2137 144.491 54.2603C144.595 54.3032 144.684 54.3641 144.759 54.4429C144.838 54.5216 144.899 54.613 144.942 54.7168C144.985 54.8206 145.006 54.9316 145.006 55.0498ZM143.556 57.5635H142.015V56.543H144.899V60.9795H146.473V62H141.827V60.9795H143.556V57.5635ZM152.751 59.1748C152.751 59.6761 152.68 60.1094 152.537 60.4746C152.397 60.8398 152.2 61.1442 151.946 61.3877C151.695 61.6276 151.398 61.8066 151.054 61.9248C150.71 62.0394 150.336 62.0967 149.932 62.0967C149.534 62.0967 149.164 62.0662 148.82 62.0054C148.48 61.9481 148.154 61.8693 147.842 61.769V54.4106H149.153V56.1938L149.099 57.2681C149.296 57.0138 149.525 56.8097 149.787 56.6558C150.052 56.5018 150.368 56.4248 150.737 56.4248C151.06 56.4248 151.346 56.4893 151.597 56.6182C151.847 56.7471 152.057 56.9315 152.225 57.1714C152.397 57.4077 152.528 57.696 152.617 58.0361C152.707 58.3727 152.751 58.7523 152.751 59.1748ZM151.376 59.2285C151.376 58.9277 151.355 58.6717 151.312 58.4604C151.269 58.2492 151.206 58.0755 151.124 57.9395C151.045 57.8034 150.947 57.7049 150.829 57.644C150.714 57.5796 150.582 57.5474 150.431 57.5474C150.209 57.5474 149.996 57.6369 149.792 57.8159C149.591 57.995 149.378 58.2384 149.153 58.5464V60.9312C149.257 60.9705 149.384 61.0028 149.534 61.0278C149.688 61.0529 149.844 61.0654 150.001 61.0654C150.209 61.0654 150.397 61.0225 150.565 60.9365C150.737 60.8506 150.882 60.7288 151 60.5713C151.122 60.4137 151.215 60.2222 151.28 59.9966C151.344 59.7674 151.376 59.5114 151.376 59.2285ZM103.862 71.953C103.862 71.3223 103.99 70.7723 104.247 70.303C104.503 69.8263 104.859 69.4597 105.314 69.203C105.768 68.939 106.289 68.807 106.876 68.807C107.631 68.807 108.254 68.9977 108.746 69.379C109.244 69.753 109.578 70.281 109.747 70.963H108.086C107.998 70.699 107.847 70.4937 107.635 70.347C107.429 70.193 107.173 70.116 106.865 70.116C106.425 70.116 106.076 70.2773 105.82 70.6C105.563 70.9153 105.435 71.3663 105.435 71.953C105.435 72.5323 105.563 72.9833 105.82 73.306C106.076 73.6213 106.425 73.779 106.865 73.779C107.488 73.779 107.895 73.5003 108.086 72.943H109.747C109.578 73.603 109.244 74.1273 108.746 74.516C108.247 74.9047 107.624 75.099 106.876 75.099C106.289 75.099 105.768 74.9707 105.314 74.714C104.859 74.45 104.503 74.0833 104.247 73.614C103.99 73.1373 103.862 72.5837 103.862 71.953ZM113.581 75.099C112.994 75.099 112.466 74.9707 111.997 74.714C111.527 74.45 111.157 74.0797 110.886 73.603C110.622 73.1263 110.49 72.5763 110.49 71.953C110.49 71.3297 110.625 70.7797 110.897 70.303C111.175 69.8263 111.553 69.4597 112.03 69.203C112.506 68.939 113.038 68.807 113.625 68.807C114.211 68.807 114.743 68.939 115.22 69.203C115.696 69.4597 116.07 69.8263 116.342 70.303C116.62 70.7797 116.76 71.3297 116.76 71.953C116.76 72.5763 116.617 73.1263 116.331 73.603C116.052 74.0797 115.671 74.45 115.187 74.714C114.71 74.9707 114.175 75.099 113.581 75.099ZM113.581 73.757C113.859 73.757 114.12 73.691 114.362 73.559C114.611 73.4197 114.809 73.2143 114.956 72.943C115.102 72.6717 115.176 72.3417 115.176 71.953C115.176 71.3737 115.022 70.93 114.714 70.622C114.413 70.3067 114.043 70.149 113.603 70.149C113.163 70.149 112.792 70.3067 112.492 70.622C112.198 70.93 112.052 71.3737 112.052 71.953C112.052 72.5323 112.195 72.9797 112.481 73.295C112.774 73.603 113.141 73.757 113.581 73.757ZM120.221 75.099C119.723 75.099 119.275 75.011 118.879 74.835C118.483 74.6517 118.168 74.406 117.933 74.098C117.706 73.79 117.581 73.449 117.559 73.075H119.11C119.14 73.3097 119.253 73.504 119.451 73.658C119.657 73.812 119.91 73.889 120.21 73.889C120.504 73.889 120.731 73.8303 120.892 73.713C121.061 73.5957 121.145 73.4453 121.145 73.262C121.145 73.064 121.043 72.9173 120.837 72.822C120.639 72.7193 120.32 72.6093 119.88 72.492C119.426 72.382 119.052 72.2683 118.758 72.151C118.472 72.0337 118.223 71.854 118.01 71.612C117.805 71.37 117.702 71.0437 117.702 70.633C117.702 70.2957 117.798 69.9877 117.988 69.709C118.186 69.4303 118.465 69.2103 118.824 69.049C119.191 68.8877 119.62 68.807 120.111 68.807C120.837 68.807 121.417 68.9903 121.849 69.357C122.282 69.7163 122.52 70.204 122.564 70.82H121.09C121.068 70.578 120.966 70.3873 120.782 70.248C120.606 70.1013 120.368 70.028 120.067 70.028C119.789 70.028 119.572 70.0793 119.418 70.182C119.272 70.2847 119.198 70.4277 119.198 70.611C119.198 70.8163 119.301 70.974 119.506 71.084C119.712 71.1867 120.031 71.293 120.463 71.403C120.903 71.513 121.266 71.6267 121.552 71.744C121.838 71.8613 122.084 72.0447 122.289 72.294C122.502 72.536 122.612 72.8587 122.619 73.262C122.619 73.614 122.52 73.9293 122.322 74.208C122.132 74.4867 121.853 74.7067 121.486 74.868C121.127 75.022 120.705 75.099 120.221 75.099ZM124.665 68.18C124.393 68.18 124.166 68.0957 123.983 67.927C123.807 67.751 123.719 67.5347 123.719 67.278C123.719 67.0213 123.807 66.8087 123.983 66.64C124.166 66.464 124.393 66.376 124.665 66.376C124.936 66.376 125.16 66.464 125.336 66.64C125.519 66.8087 125.611 67.0213 125.611 67.278C125.611 67.5347 125.519 67.751 125.336 67.927C125.16 68.0957 124.936 68.18 124.665 68.18ZM125.424 68.906V75H123.884V68.906H125.424ZM130.322 68.818C131.048 68.818 131.635 69.049 132.082 69.511C132.529 69.9657 132.753 70.6037 132.753 71.425V75H131.213V71.634C131.213 71.15 131.092 70.7797 130.85 70.523C130.608 70.259 130.278 70.127 129.86 70.127C129.435 70.127 129.097 70.259 128.848 70.523C128.606 70.7797 128.485 71.15 128.485 71.634V75H126.945V68.906H128.485V69.665C128.69 69.401 128.951 69.1957 129.266 69.049C129.589 68.895 129.941 68.818 130.322 68.818ZM139.882 71.821C139.882 72.041 139.868 72.239 139.838 72.415H135.383C135.42 72.855 135.574 73.1997 135.845 73.449C136.117 73.6983 136.45 73.823 136.846 73.823C137.418 73.823 137.825 73.5773 138.067 73.086H139.728C139.552 73.6727 139.215 74.1567 138.716 74.538C138.218 74.912 137.605 75.099 136.879 75.099C136.293 75.099 135.765 74.9707 135.295 74.714C134.833 74.45 134.47 74.0797 134.206 73.603C133.95 73.1263 133.821 72.5763 133.821 71.953C133.821 71.3223 133.95 70.7687 134.206 70.292C134.463 69.8153 134.822 69.4487 135.284 69.192C135.746 68.9353 136.278 68.807 136.879 68.807C137.459 68.807 137.976 68.9317 138.43 69.181C138.892 69.4303 139.248 69.786 139.497 70.248C139.754 70.7027 139.882 71.227 139.882 71.821ZM138.287 71.381C138.28 70.985 138.137 70.6697 137.858 70.435C137.58 70.193 137.239 70.072 136.835 70.072C136.454 70.072 136.131 70.1893 135.867 70.424C135.611 70.6513 135.453 70.9703 135.394 71.381H138.287ZM143.232 71.931C143.232 71.315 143.353 70.7687 143.595 70.292C143.844 69.8153 144.181 69.4487 144.607 69.192C145.032 68.9353 145.505 68.807 146.026 68.807C146.422 68.807 146.799 68.895 147.159 69.071C147.518 69.2397 147.804 69.467 148.017 69.753V66.86H149.579V75H148.017V74.098C147.826 74.3987 147.558 74.6407 147.214 74.824C146.869 75.0073 146.469 75.099 146.015 75.099C145.501 75.099 145.032 74.967 144.607 74.703C144.181 74.439 143.844 74.0687 143.595 73.592C143.353 73.108 143.232 72.5543 143.232 71.931ZM148.028 71.953C148.028 71.579 147.954 71.26 147.808 70.996C147.661 70.7247 147.463 70.5193 147.214 70.38C146.964 70.2333 146.697 70.16 146.411 70.16C146.125 70.16 145.861 70.2297 145.619 70.369C145.377 70.5083 145.179 70.7137 145.025 70.985C144.878 71.249 144.805 71.5643 144.805 71.931C144.805 72.2977 144.878 72.6203 145.025 72.899C145.179 73.1703 145.377 73.3793 145.619 73.526C145.868 73.6727 146.132 73.746 146.411 73.746C146.697 73.746 146.964 73.6763 147.214 73.537C147.463 73.3903 147.661 73.185 147.808 72.921C147.954 72.6497 148.028 72.327 148.028 71.953ZM151.864 68.18C151.592 68.18 151.365 68.0957 151.182 67.927C151.006 67.751 150.918 67.5347 150.918 67.278C150.918 67.0213 151.006 66.8087 151.182 66.64C151.365 66.464 151.592 66.376 151.864 66.376C152.135 66.376 152.359 66.464 152.535 66.64C152.718 66.8087 152.81 67.0213 152.81 67.278C152.81 67.5347 152.718 67.751 152.535 67.927C152.359 68.0957 152.135 68.18 151.864 68.18ZM152.623 68.906V75H151.083V68.906H152.623ZM156.476 75.099C155.978 75.099 155.53 75.011 155.134 74.835C154.738 74.6517 154.423 74.406 154.188 74.098C153.961 73.79 153.836 73.449 153.814 73.075H155.365C155.395 73.3097 155.508 73.504 155.706 73.658C155.912 73.812 156.165 73.889 156.465 73.889C156.759 73.889 156.986 73.8303 157.147 73.713C157.316 73.5957 157.4 73.4453 157.4 73.262C157.4 73.064 157.298 72.9173 157.092 72.822C156.894 72.7193 156.575 72.6093 156.135 72.492C155.681 72.382 155.307 72.2683 155.013 72.151C154.727 72.0337 154.478 71.854 154.265 71.612C154.06 71.37 153.957 71.0437 153.957 70.633C153.957 70.2957 154.053 69.9877 154.243 69.709C154.441 69.4303 154.72 69.2103 155.079 69.049C155.446 68.8877 155.875 68.807 156.366 68.807C157.092 68.807 157.672 68.9903 158.104 69.357C158.537 69.7163 158.775 70.204 158.819 70.82H157.345C157.323 70.578 157.221 70.3873 157.037 70.248C156.861 70.1013 156.623 70.028 156.322 70.028C156.044 70.028 155.827 70.0793 155.673 70.182C155.527 70.2847 155.453 70.4277 155.453 70.611C155.453 70.8163 155.556 70.974 155.761 71.084C155.967 71.1867 156.286 71.293 156.718 71.403C157.158 71.513 157.521 71.6267 157.807 71.744C158.093 71.8613 158.339 72.0447 158.544 72.294C158.757 72.536 158.867 72.8587 158.874 73.262C158.874 73.614 158.775 73.9293 158.577 74.208C158.387 74.4867 158.108 74.7067 157.741 74.868C157.382 75.022 156.96 75.099 156.476 75.099ZM161.931 70.171V73.119C161.931 73.3243 161.979 73.4747 162.074 73.57C162.177 73.658 162.346 73.702 162.58 73.702H163.295V75H162.327C161.029 75 160.38 74.3693 160.38 73.108V70.171H159.654V68.906H160.38V67.399H161.931V68.906H163.295V70.171H161.931ZM165.085 75.077C164.806 75.077 164.575 74.9927 164.392 74.824C164.216 74.648 164.128 74.4317 164.128 74.175C164.128 73.9183 164.216 73.7057 164.392 73.537C164.575 73.361 164.806 73.273 165.085 73.273C165.356 73.273 165.58 73.361 165.756 73.537C165.932 73.7057 166.02 73.9183 166.02 74.175C166.02 74.4317 165.932 74.648 165.756 74.824C165.58 74.9927 165.356 75.077 165.085 75.077Z" fill="#343434"/>
<path d="M212.898 13.926V23H211.078V13.926H212.898ZM217.868 13.926C218.821 13.926 219.657 14.1123 220.377 14.485C221.105 14.8577 221.664 15.3907 222.054 16.084C222.452 16.7687 222.652 17.566 222.652 18.476C222.652 19.386 222.452 20.1833 222.054 20.868C221.664 21.544 221.105 22.0683 220.377 22.441C219.657 22.8137 218.821 23 217.868 23H214.696V13.926H217.868ZM217.803 21.453C218.756 21.453 219.493 21.193 220.013 20.673C220.533 20.153 220.793 19.4207 220.793 18.476C220.793 17.5313 220.533 16.7947 220.013 16.266C219.493 15.7287 218.756 15.46 217.803 15.46H216.516V21.453H217.803ZM232.139 23.52V25.249H224.508V23.52H232.139ZM236.105 21.557H239.095V23H234.285V13.926H236.105V21.557ZM240.615 20.946C241.447 20.2527 242.11 19.6763 242.604 19.217C243.098 18.749 243.51 18.2637 243.839 17.761C244.169 17.2583 244.333 16.7643 244.333 16.279C244.333 15.837 244.229 15.4903 244.021 15.239C243.813 14.9877 243.493 14.862 243.059 14.862C242.626 14.862 242.292 15.0093 242.058 15.304C241.824 15.59 241.703 15.9843 241.694 16.487H239.926C239.961 15.447 240.269 14.6583 240.849 14.121C241.439 13.5837 242.184 13.315 243.085 13.315C244.073 13.315 244.832 13.5793 245.36 14.108C245.889 14.628 246.153 15.317 246.153 16.175C246.153 16.851 245.971 17.4967 245.607 18.112C245.243 18.7273 244.827 19.2647 244.359 19.724C243.891 20.1747 243.28 20.7207 242.526 21.362H246.361V22.87H239.939V21.518L240.615 20.946Z" fill="#F3F3F3"/>
<path d="M212.898 66.926V76H211.078V66.926H212.898ZM217.868 66.926C218.822 66.926 219.658 67.1123 220.377 67.485C221.105 67.8577 221.664 68.3907 222.054 69.084C222.453 69.7687 222.652 70.566 222.652 71.476C222.652 72.386 222.453 73.1833 222.054 73.868C221.664 74.544 221.105 75.0683 220.377 75.441C219.658 75.8137 218.822 76 217.868 76H214.696V66.926H217.868ZM217.803 74.453C218.757 74.453 219.493 74.193 220.013 73.673C220.533 73.153 220.793 72.4207 220.793 71.476C220.793 70.5313 220.533 69.7947 220.013 69.266C219.493 68.7287 218.757 68.46 217.803 68.46H216.516V74.453H217.803ZM232.14 76.52V78.249H224.509V76.52H232.14ZM233.817 72.399C233.817 71.6537 233.969 71.0037 234.272 70.449C234.576 69.8857 234.996 69.4523 235.533 69.149C236.071 68.837 236.686 68.681 237.379 68.681C238.272 68.681 239.009 68.9063 239.589 69.357C240.179 69.799 240.573 70.423 240.772 71.229H238.809C238.705 70.917 238.528 70.6743 238.276 70.501C238.034 70.319 237.73 70.228 237.366 70.228C236.846 70.228 236.435 70.4187 236.131 70.8C235.828 71.1727 235.676 71.7057 235.676 72.399C235.676 73.0837 235.828 73.6167 236.131 73.998C236.435 74.3707 236.846 74.557 237.366 74.557C238.103 74.557 238.584 74.2277 238.809 73.569H240.772C240.573 74.349 240.179 74.9687 239.589 75.428C239 75.8873 238.263 76.117 237.379 76.117C236.686 76.117 236.071 75.9653 235.533 75.662C234.996 75.35 234.576 74.9167 234.272 74.362C233.969 73.7987 233.817 73.1443 233.817 72.399ZM245.303 76.117C244.61 76.117 243.986 75.9653 243.431 75.662C242.877 75.35 242.439 74.9123 242.118 74.349C241.806 73.7857 241.65 73.1357 241.65 72.399C241.65 71.6623 241.811 71.0123 242.131 70.449C242.461 69.8857 242.907 69.4523 243.47 69.149C244.034 68.837 244.662 68.681 245.355 68.681C246.049 68.681 246.677 68.837 247.24 69.149C247.804 69.4523 248.246 69.8857 248.566 70.449C248.896 71.0123 249.06 71.6623 249.06 72.399C249.06 73.1357 248.891 73.7857 248.553 74.349C248.224 74.9123 247.773 75.35 247.201 75.662C246.638 75.9653 246.005 76.117 245.303 76.117ZM245.303 74.531C245.633 74.531 245.94 74.453 246.226 74.297C246.521 74.1323 246.755 73.8897 246.928 73.569C247.102 73.2483 247.188 72.8583 247.188 72.399C247.188 71.7143 247.006 71.19 246.642 70.826C246.287 70.4533 245.849 70.267 245.329 70.267C244.809 70.267 244.372 70.4533 244.016 70.826C243.67 71.19 243.496 71.7143 243.496 72.399C243.496 73.0837 243.665 73.6123 244.003 73.985C244.35 74.349 244.783 74.531 245.303 74.531ZM253.152 76.117C252.562 76.117 252.034 76.013 251.566 75.805C251.098 75.5883 250.725 75.298 250.448 74.934C250.179 74.57 250.032 74.167 250.006 73.725H251.839C251.873 74.0023 252.008 74.232 252.242 74.414C252.484 74.596 252.783 74.687 253.139 74.687C253.485 74.687 253.754 74.6177 253.945 74.479C254.144 74.3403 254.244 74.1627 254.244 73.946C254.244 73.712 254.122 73.5387 253.88 73.426C253.646 73.3047 253.269 73.1747 252.749 73.036C252.211 72.906 251.769 72.7717 251.423 72.633C251.085 72.4943 250.79 72.282 250.539 71.996C250.296 71.71 250.175 71.3243 250.175 70.839C250.175 70.4403 250.287 70.0763 250.513 69.747C250.747 69.4177 251.076 69.1577 251.501 68.967C251.934 68.7763 252.441 68.681 253.022 68.681C253.88 68.681 254.564 68.8977 255.076 69.331C255.587 69.7557 255.869 70.332 255.921 71.06H254.179C254.153 70.774 254.031 70.5487 253.815 70.384C253.607 70.2107 253.325 70.124 252.97 70.124C252.64 70.124 252.385 70.1847 252.203 70.306C252.029 70.4273 251.943 70.5963 251.943 70.813C251.943 71.0557 252.064 71.242 252.307 71.372C252.549 71.4933 252.926 71.619 253.438 71.749C253.958 71.879 254.387 72.0133 254.725 72.152C255.063 72.2907 255.353 72.5073 255.596 72.802C255.847 73.088 255.977 73.4693 255.986 73.946C255.986 74.362 255.869 74.7347 255.635 75.064C255.409 75.3933 255.08 75.6533 254.647 75.844C254.222 76.026 253.724 76.117 253.152 76.117ZM258.403 67.94C258.082 67.94 257.813 67.8403 257.597 67.641C257.389 67.433 257.285 67.1773 257.285 66.874C257.285 66.5707 257.389 66.3193 257.597 66.12C257.813 65.912 258.082 65.808 258.403 65.808C258.723 65.808 258.988 65.912 259.196 66.12C259.412 66.3193 259.521 66.5707 259.521 66.874C259.521 67.1773 259.412 67.433 259.196 67.641C258.988 67.8403 258.723 67.94 258.403 67.94ZM259.3 68.798V76H257.48V68.798H259.3ZM265.089 68.694C265.947 68.694 266.64 68.967 267.169 69.513C267.697 70.0503 267.962 70.8043 267.962 71.775V76H266.142V72.022C266.142 71.45 265.999 71.0123 265.713 70.709C265.427 70.397 265.037 70.241 264.543 70.241C264.04 70.241 263.641 70.397 263.347 70.709C263.061 71.0123 262.918 71.45 262.918 72.022V76H261.098V68.798H262.918V69.695C263.16 69.383 263.468 69.1403 263.841 68.967C264.222 68.785 264.638 68.694 265.089 68.694ZM276.387 72.243C276.387 72.503 276.37 72.737 276.335 72.945H271.07C271.114 73.465 271.296 73.8723 271.616 74.167C271.937 74.4617 272.331 74.609 272.799 74.609C273.475 74.609 273.956 74.3187 274.242 73.738H276.205C275.997 74.4313 275.599 75.0033 275.009 75.454C274.42 75.896 273.696 76.117 272.838 76.117C272.145 76.117 271.521 75.9653 270.966 75.662C270.42 75.35 269.991 74.9123 269.679 74.349C269.376 73.7857 269.224 73.1357 269.224 72.399C269.224 71.6537 269.376 70.9993 269.679 70.436C269.983 69.8727 270.407 69.4393 270.953 69.136C271.499 68.8327 272.128 68.681 272.838 68.681C273.523 68.681 274.134 68.8283 274.671 69.123C275.217 69.4177 275.638 69.838 275.932 70.384C276.236 70.9213 276.387 71.541 276.387 72.243ZM274.502 71.723C274.494 71.255 274.325 70.8823 273.995 70.605C273.666 70.319 273.263 70.176 272.786 70.176C272.336 70.176 271.954 70.3147 271.642 70.592C271.339 70.8607 271.153 71.2377 271.083 71.723H274.502Z" fill="#F3F3F3"/>
<path d="M297 45.0645C295.371 45.6876 294.281 46.6049 293.729 47.8165C293.178 48.9934 292.902 50.3435 292.902 51.8666C292.902 53.459 293.065 55.6398 293.391 58.4091C293.416 58.6861 293.504 59.6034 293.654 61.1611C293.805 62.7189 293.88 64.2074 293.88 65.6267C293.88 68.1537 293.404 70.0057 292.451 71.1826C291.524 72.3942 290.208 73 288.504 73H287V70.923H288.278C289.556 70.923 290.521 70.4903 291.173 69.6249C291.85 68.7941 292.188 67.4267 292.188 65.5228C292.188 64.4497 292.138 63.2728 292.038 61.9919C291.937 60.6765 291.825 59.413 291.699 58.2014C291.574 57.0937 291.461 55.9687 291.361 54.8263C291.286 53.684 291.248 52.6801 291.248 51.8147C291.248 49.8415 291.599 48.1799 292.301 46.8299C293.028 45.4452 294.13 44.5106 295.609 44.026V43.9221C294.13 43.4375 293.028 42.5201 292.301 41.1701C291.599 39.8201 291.248 38.1585 291.248 36.1853C291.248 35.3199 291.286 34.316 291.361 33.1737C291.461 32.0313 291.574 30.9063 291.699 29.7986C291.825 28.587 291.937 27.3408 292.038 26.06C292.138 24.7446 292.188 23.5503 292.188 22.4772C292.188 20.5733 291.85 19.2059 291.173 18.3751C290.521 17.5097 289.556 17.077 288.278 17.077H287V15H288.504C290.208 15 291.524 15.6058 292.451 16.8174C293.404 17.9943 293.88 19.8463 293.88 22.3733C293.88 23.7926 293.805 25.2811 293.654 26.8389C293.504 28.3966 293.416 29.3139 293.391 29.5909C293.065 32.3602 292.902 34.541 292.902 36.1334C292.902 37.6565 293.178 39.0239 293.729 40.2355C294.281 41.4124 295.371 42.3124 297 42.9355V45.0645Z" fill="#F3F3F3"/>
<path d="M83.3536 18.3536C83.5488 18.1583 83.5488 17.8417 83.3536 17.6464L80.1716 14.4645C79.9763 14.2692 79.6597 14.2692 79.4645 14.4645C79.2692 14.6597 79.2692 14.9763 79.4645 15.1716L82.2929 18L79.4645 20.8284C79.2692 21.0237 79.2692 21.3403 79.4645 21.5355C79.6597 21.7308 79.9763 21.7308 80.1716 21.5355L83.3536 18.3536ZM71 66H70.5V66.5H71V66ZM83.3536 66.3536C83.5488 66.1583 83.5488 65.8417 83.3536 65.6464L80.1716 62.4645C79.9763 62.2692 79.6597 62.2692 79.4645 62.4645C79.2692 62.6597 79.2692 62.9763 79.4645 63.1716L82.2929 66L79.4645 68.8284C79.2692 69.0237 79.2692 69.3403 79.4645 69.5355C79.6597 69.7308 79.9763 69.7308 80.1716 69.5355L83.3536 66.3536ZM59 18.5H60V17.5H59V18.5ZM62 18.5H64V17.5H62V18.5ZM66 18.5H68V17.5H66V18.5ZM70 18.5H71V17.5H70V18.5ZM71 18.5H72V17.5H71V18.5ZM74 18.5H76V17.5H74V18.5ZM78 18.5H80V17.5H78V18.5ZM82 18.5H83V17.5H82V18.5ZM70.5 18V19H71.5V18H70.5ZM70.5 21V23H71.5V21H70.5ZM70.5 25V27H71.5V25H70.5ZM70.5 29V31H71.5V29H70.5ZM70.5 33V35H71.5V33H70.5ZM70.5 37V39H71.5V37H70.5ZM70.5 41V43H71.5V41H70.5ZM70.5 45V47H71.5V45H70.5ZM70.5 49V51H71.5V49H70.5ZM70.5 53V55H71.5V53H70.5ZM70.5 57V59H71.5V57H70.5ZM70.5 61V63H71.5V61H70.5ZM70.5 65V66H71.5V65H70.5ZM71 66.5H72V65.5H71V66.5ZM74 66.5H76V65.5H74V66.5ZM78 66.5H80V65.5H78V66.5ZM82 66.5H83V65.5H82V66.5Z" fill="#F3F3F3"/>
<path d="M202.354 18.3536C202.549 18.1583 202.549 17.8417 202.354 17.6464L199.172 14.4645C198.976 14.2692 198.66 14.2692 198.464 14.4645C198.269 14.6597 198.269 14.9763 198.464 15.1716L201.293 18L198.464 20.8284C198.269 21.0237 198.269 21.3403 198.464 21.5355C198.66 21.7308 198.976 21.7308 199.172 21.5355L202.354 18.3536ZM187 18.5H187.938V17.5H187V18.5ZM189.813 18.5H191.688V17.5H189.813V18.5ZM193.563 18.5H195.438V17.5H193.563V18.5ZM197.313 18.5H199.188V17.5H197.313V18.5ZM201.063 18.5H202V17.5H201.063V18.5Z" fill="#F3F3F3"/>
<path d="M202.354 71.3536C202.549 71.1583 202.549 70.8417 202.354 70.6464L199.172 67.4645C198.976 67.2692 198.66 67.2692 198.464 67.4645C198.269 67.6597 198.269 67.9763 198.464 68.1716L201.293 71L198.464 73.8284C198.269 74.0237 198.269 74.3403 198.464 74.5355C198.66 74.7308 198.976 74.7308 199.172 74.5355L202.354 71.3536ZM187 71.5H187.938V70.5H187V71.5ZM189.813 71.5H191.688V70.5H189.813V71.5ZM193.563 71.5H195.438V70.5H193.563V71.5ZM197.313 71.5H199.188V70.5H197.313V71.5ZM201.063 71.5H202V70.5H201.063V71.5Z" fill="#F3F3F3"/>
<path d="M309.678 13.7861C309.678 13.9258 309.653 14.057 309.602 14.1797C309.551 14.3024 309.479 14.4103 309.386 14.5034C309.297 14.5923 309.192 14.6642 309.069 14.7192C308.946 14.77 308.813 14.7954 308.669 14.7954C308.525 14.7954 308.39 14.77 308.263 14.7192C308.14 14.6642 308.032 14.5923 307.939 14.5034C307.85 14.4103 307.78 14.3024 307.729 14.1797C307.679 14.057 307.653 13.9258 307.653 13.7861C307.653 13.6465 307.679 13.5153 307.729 13.3926C307.78 13.2699 307.85 13.1619 307.939 13.0688C308.032 12.9757 308.14 12.9038 308.263 12.853C308.39 12.798 308.525 12.7705 308.669 12.7705C308.813 12.7705 308.946 12.798 309.069 12.853C309.192 12.9038 309.297 12.9757 309.386 13.0688C309.479 13.1619 309.551 13.2699 309.602 13.3926C309.653 13.5153 309.678 13.6465 309.678 13.7861ZM307.964 16.7568H306.143V15.5508H309.551V20.7939H311.411V22H305.92V20.7939H307.964V16.7568ZM318.819 14.3447C318.633 14.2855 318.41 14.2368 318.152 14.1987C317.898 14.1564 317.638 14.1353 317.372 14.1353C317.19 14.1353 317.02 14.1606 316.864 14.2114C316.707 14.258 316.572 14.3341 316.458 14.4399C316.343 14.5457 316.252 14.6812 316.185 14.8462C316.121 15.007 316.089 15.2038 316.089 15.4365V16.4775H318.622V17.6836H316.089V22H314.528V17.6836H312.655V16.4775H314.528V15.5C314.528 15.043 314.593 14.6515 314.725 14.3257C314.86 13.9956 315.048 13.7269 315.29 13.5195C315.535 13.3079 315.829 13.1535 316.172 13.0562C316.515 12.9588 316.898 12.9102 317.321 12.9102C317.6 12.9102 317.865 12.9292 318.114 12.9673C318.368 13.0011 318.603 13.0435 318.819 13.0942V14.3447Z" fill="#6EC8A5"/>
<path d="M327.947 12.965V22H326.465V12.965H327.947ZM332.844 12.965C333.806 12.965 334.647 13.1513 335.366 13.524C336.094 13.888 336.653 14.4167 337.043 15.11C337.442 15.7947 337.641 16.5963 337.641 17.515C337.641 18.4337 337.442 19.231 337.043 19.907C336.653 20.583 336.094 21.103 335.366 21.467C334.647 21.8223 333.806 22 332.844 22H329.893V12.965H332.844ZM332.844 20.791C333.901 20.791 334.712 20.505 335.275 19.933C335.838 19.361 336.12 18.555 336.12 17.515C336.12 16.4663 335.838 15.6473 335.275 15.058C334.712 14.4687 333.901 14.174 332.844 14.174H331.375V20.791H332.844ZM347.027 22.52V23.898H339.773V22.52H347.027ZM350.964 20.804H354.019V22H349.482V12.965H350.964V20.804ZM355.882 19.985C356.714 19.2657 357.369 18.6763 357.845 18.217C358.331 17.749 358.734 17.2637 359.054 16.761C359.375 16.2583 359.535 15.7557 359.535 15.253C359.535 14.733 359.41 14.3257 359.158 14.031C358.916 13.7363 358.53 13.589 358.001 13.589C357.49 13.589 357.091 13.7537 356.805 14.083C356.528 14.4037 356.381 14.837 356.363 15.383H354.933C354.959 14.395 355.254 13.641 355.817 13.121C356.389 12.5923 357.113 12.328 357.988 12.328C358.933 12.328 359.67 12.588 360.198 13.108C360.736 13.628 361.004 14.3213 361.004 15.188C361.004 15.812 360.844 16.4143 360.523 16.995C360.211 17.567 359.834 18.0827 359.392 18.542C358.959 18.9927 358.404 19.517 357.728 20.115L357.143 20.635H361.264V21.87H354.946V20.791L355.882 19.985ZM367.997 12.965L367.828 19.27H366.593L366.424 12.965H367.997ZM367.256 22.091C366.987 22.091 366.762 22 366.58 21.818C366.398 21.636 366.307 21.4107 366.307 21.142C366.307 20.8733 366.398 20.648 366.58 20.466C366.762 20.284 366.987 20.193 367.256 20.193C367.516 20.193 367.737 20.284 367.919 20.466C368.101 20.648 368.192 20.8733 368.192 21.142C368.192 21.4107 368.101 21.636 367.919 21.818C367.737 22 367.516 22.091 367.256 22.091ZM377.829 15.201V16.449H370.913V15.201H377.829ZM377.829 18.152V19.4H370.913V18.152H377.829ZM385.241 12.965V22H383.759V12.965H385.241ZM390.138 12.965C391.1 12.965 391.941 13.1513 392.66 13.524C393.388 13.888 393.947 14.4167 394.337 15.11C394.736 15.7947 394.935 16.5963 394.935 17.515C394.935 18.4337 394.736 19.231 394.337 19.907C393.947 20.583 393.388 21.103 392.66 21.467C391.941 21.8223 391.1 22 390.138 22H387.187V12.965H390.138ZM390.138 20.791C391.195 20.791 392.006 20.505 392.569 19.933C393.132 19.361 393.414 18.555 393.414 17.515C393.414 16.4663 393.132 15.6473 392.569 15.058C392.006 14.4687 391.195 14.174 390.138 14.174H388.669V20.791H390.138ZM404.321 22.52V23.898H397.067V22.52H404.321ZM406.282 18.412C406.282 17.6753 406.429 17.0297 406.724 16.475C407.027 15.9117 407.443 15.4783 407.972 15.175C408.5 14.8717 409.107 14.72 409.792 14.72C410.658 14.72 411.373 14.928 411.937 15.344C412.509 15.7513 412.894 16.3363 413.094 17.099H411.495C411.365 16.7437 411.157 16.4663 410.871 16.267C410.585 16.0677 410.225 15.968 409.792 15.968C409.185 15.968 408.7 16.1847 408.336 16.618C407.98 17.0427 407.803 17.6407 407.803 18.412C407.803 19.1833 407.98 19.7857 408.336 20.219C408.7 20.6523 409.185 20.869 409.792 20.869C410.65 20.869 411.217 20.492 411.495 19.738H413.094C412.886 20.466 412.496 21.0467 411.924 21.48C411.352 21.9047 410.641 22.117 409.792 22.117C409.107 22.117 408.5 21.9653 407.972 21.662C407.443 21.35 407.027 20.9167 406.724 20.362C406.429 19.7987 406.282 19.1487 406.282 18.412ZM417.678 22.117C417.002 22.117 416.391 21.9653 415.845 21.662C415.299 21.35 414.87 20.9167 414.558 20.362C414.246 19.7987 414.09 19.1487 414.09 18.412C414.09 17.684 414.25 17.0383 414.571 16.475C414.891 15.9117 415.329 15.4783 415.884 15.175C416.438 14.8717 417.058 14.72 417.743 14.72C418.427 14.72 419.047 14.8717 419.602 15.175C420.156 15.4783 420.594 15.9117 420.915 16.475C421.235 17.0383 421.396 17.684 421.396 18.412C421.396 19.14 421.231 19.7857 420.902 20.349C420.572 20.9123 420.122 21.35 419.55 21.662C418.986 21.9653 418.362 22.117 417.678 22.117ZM417.678 20.83C418.059 20.83 418.414 20.739 418.744 20.557C419.082 20.375 419.355 20.102 419.563 19.738C419.771 19.374 419.875 18.932 419.875 18.412C419.875 17.892 419.775 17.4543 419.576 17.099C419.376 16.735 419.112 16.462 418.783 16.28C418.453 16.098 418.098 16.007 417.717 16.007C417.335 16.007 416.98 16.098 416.651 16.28C416.33 16.462 416.074 16.735 415.884 17.099C415.693 17.4543 415.598 17.892 415.598 18.412C415.598 19.1833 415.793 19.7813 416.183 20.206C416.581 20.622 417.08 20.83 417.678 20.83ZM425.461 22.117C424.897 22.117 424.39 22.0173 423.94 21.818C423.498 21.61 423.147 21.3327 422.887 20.986C422.627 20.6307 422.488 20.2363 422.471 19.803H424.005C424.031 20.1063 424.174 20.362 424.434 20.57C424.702 20.7693 425.036 20.869 425.435 20.869C425.851 20.869 426.171 20.791 426.397 20.635C426.631 20.4703 426.748 20.2623 426.748 20.011C426.748 19.7423 426.618 19.543 426.358 19.413C426.106 19.283 425.703 19.14 425.149 18.984C424.611 18.8367 424.174 18.6937 423.836 18.555C423.498 18.4163 423.203 18.204 422.952 17.918C422.709 17.632 422.588 17.255 422.588 16.787C422.588 16.4057 422.7 16.059 422.926 15.747C423.151 15.4263 423.472 15.175 423.888 14.993C424.312 14.811 424.798 14.72 425.344 14.72C426.158 14.72 426.813 14.928 427.307 15.344C427.809 15.7513 428.078 16.3103 428.113 17.021H426.631C426.605 16.7003 426.475 16.4447 426.241 16.254C426.007 16.0633 425.69 15.968 425.292 15.968C424.902 15.968 424.603 16.0417 424.395 16.189C424.187 16.3363 424.083 16.5313 424.083 16.774C424.083 16.9647 424.152 17.125 424.291 17.255C424.429 17.385 424.598 17.489 424.798 17.567C424.997 17.6363 425.292 17.7273 425.682 17.84C426.202 17.9787 426.626 18.1217 426.956 18.269C427.294 18.4077 427.584 18.6157 427.827 18.893C428.069 19.1703 428.195 19.5387 428.204 19.998C428.204 20.4053 428.091 20.7693 427.866 21.09C427.64 21.4107 427.32 21.662 426.904 21.844C426.496 22.026 426.015 22.117 425.461 22.117ZM430.559 13.888C430.29 13.888 430.065 13.797 429.883 13.615C429.701 13.433 429.61 13.2077 429.61 12.939C429.61 12.6703 429.701 12.445 429.883 12.263C430.065 12.081 430.29 11.99 430.559 11.99C430.819 11.99 431.04 12.081 431.222 12.263C431.404 12.445 431.495 12.6703 431.495 12.939C431.495 13.2077 431.404 13.433 431.222 13.615C431.04 13.797 430.819 13.888 430.559 13.888ZM431.287 14.837V22H429.805V14.837H431.287ZM436.847 14.72C437.41 14.72 437.913 14.837 438.355 15.071C438.805 15.305 439.156 15.6517 439.408 16.111C439.659 16.5703 439.785 17.125 439.785 17.775V22H438.316V17.996C438.316 17.3547 438.155 16.865 437.835 16.527C437.514 16.1803 437.076 16.007 436.522 16.007C435.967 16.007 435.525 16.1803 435.196 16.527C434.875 16.865 434.715 17.3547 434.715 17.996V22H433.233V14.837H434.715V15.656C434.957 15.3613 435.265 15.1317 435.638 14.967C436.019 14.8023 436.422 14.72 436.847 14.72ZM448.24 18.243C448.24 18.5117 448.223 18.7543 448.188 18.971H442.715C442.759 19.543 442.971 20.0023 443.352 20.349C443.734 20.6957 444.202 20.869 444.756 20.869C445.554 20.869 446.117 20.5353 446.446 19.868H448.045C447.829 20.5267 447.434 21.0683 446.862 21.493C446.299 21.909 445.597 22.117 444.756 22.117C444.072 22.117 443.456 21.9653 442.91 21.662C442.373 21.35 441.948 20.9167 441.636 20.362C441.333 19.7987 441.181 19.1487 441.181 18.412C441.181 17.6753 441.329 17.0297 441.623 16.475C441.927 15.9117 442.347 15.4783 442.884 15.175C443.43 14.8717 444.054 14.72 444.756 14.72C445.432 14.72 446.035 14.8673 446.563 15.162C447.092 15.4567 447.504 15.8727 447.798 16.41C448.093 16.9387 448.24 17.5497 448.24 18.243ZM446.693 17.775C446.685 17.229 446.49 16.7913 446.108 16.462C445.727 16.1327 445.255 15.968 444.691 15.968C444.18 15.968 443.742 16.1327 443.378 16.462C443.014 16.7827 442.798 17.2203 442.728 17.775H446.693ZM450.297 22.091C450.028 22.091 449.803 22 449.621 21.818C449.439 21.636 449.348 21.4107 449.348 21.142C449.348 20.8733 449.439 20.648 449.621 20.466C449.803 20.284 450.028 20.193 450.297 20.193C450.557 20.193 450.778 20.284 450.96 20.466C451.142 20.648 451.233 20.8733 451.233 21.142C451.233 21.4107 451.142 21.636 450.96 21.818C450.778 22 450.557 22.091 450.297 22.091ZM450.297 16.631C450.028 16.631 449.803 16.54 449.621 16.358C449.439 16.176 449.348 15.9507 449.348 15.682C449.348 15.4133 449.439 15.188 449.621 15.006C449.803 14.824 450.028 14.733 450.297 14.733C450.557 14.733 450.778 14.824 450.96 15.006C451.142 15.188 451.233 15.4133 451.233 15.682C451.233 15.9507 451.142 16.176 450.96 16.358C450.778 16.54 450.557 16.631 450.297 16.631Z" fill="#F3F3F3"/>
<path d="M311.858 54.2803C311.858 54.3861 311.854 54.5236 311.845 54.6929C311.841 54.8621 311.833 55.0208 311.82 55.1689H307.58C307.58 55.4525 307.622 55.7021 307.707 55.918C307.795 56.1338 307.918 56.3158 308.075 56.4639C308.236 56.6077 308.426 56.7178 308.646 56.7939C308.87 56.8701 309.118 56.9082 309.389 56.9082C309.702 56.9082 310.036 56.8849 310.392 56.8384C310.751 56.7876 311.124 56.7072 311.509 56.5972V57.8286C311.344 57.8752 311.164 57.9175 310.969 57.9556C310.775 57.9937 310.576 58.0275 310.373 58.0571C310.169 58.0868 309.964 58.1079 309.757 58.1206C309.549 58.1375 309.348 58.146 309.154 58.146C308.663 58.146 308.223 58.0762 307.833 57.9365C307.444 57.7969 307.114 57.5916 306.843 57.3208C306.572 57.0457 306.365 56.7072 306.221 56.3052C306.077 55.9032 306.005 55.4377 306.005 54.9087C306.005 54.384 306.077 53.9079 306.221 53.4805C306.365 53.0488 306.568 52.6807 306.831 52.376C307.093 52.0671 307.41 51.8301 307.783 51.665C308.159 51.4958 308.578 51.4111 309.04 51.4111C309.497 51.4111 309.901 51.4831 310.252 51.627C310.603 51.7666 310.897 51.9634 311.134 52.2173C311.371 52.4712 311.551 52.7738 311.674 53.125C311.797 53.4762 311.858 53.8613 311.858 54.2803ZM310.284 54.0581C310.288 53.8042 310.256 53.5841 310.188 53.3979C310.121 53.2075 310.028 53.0509 309.909 52.9282C309.795 52.8055 309.66 52.7145 309.503 52.6553C309.351 52.596 309.186 52.5664 309.008 52.5664C308.618 52.5664 308.299 52.6976 308.049 52.96C307.8 53.2181 307.652 53.5841 307.605 54.0581H310.284ZM315.47 50.2368H313.648V49.0308H317.057V56.7939H318.917V58H313.426V56.7939H315.47V50.2368ZM325.854 56.1021C325.854 56.4702 325.772 56.7855 325.607 57.0479C325.446 57.306 325.23 57.5176 324.959 57.6826C324.693 57.8434 324.388 57.9598 324.045 58.0317C323.707 58.1079 323.36 58.146 323.004 58.146C322.53 58.146 322.103 58.1227 321.722 58.0762C321.341 58.0339 320.982 57.9704 320.643 57.8857V56.4893C321.041 56.6543 321.437 56.7749 321.83 56.8511C322.228 56.923 322.602 56.959 322.954 56.959C323.36 56.959 323.662 56.8955 323.861 56.7686C324.064 56.6374 324.166 56.4681 324.166 56.2607C324.166 56.1634 324.145 56.0745 324.103 55.9941C324.06 55.9137 323.98 55.8376 323.861 55.7656C323.747 55.6895 323.584 55.6133 323.373 55.5371C323.161 55.4567 322.884 55.3678 322.541 55.2705C322.224 55.1816 321.944 55.0822 321.703 54.9722C321.466 54.8579 321.269 54.7246 321.113 54.5723C320.956 54.4199 320.838 54.2443 320.757 54.0454C320.681 53.8423 320.643 53.6053 320.643 53.3345C320.643 53.0721 320.702 52.8245 320.821 52.5918C320.939 52.359 321.115 52.1559 321.348 51.9824C321.585 51.8047 321.879 51.665 322.23 51.5635C322.581 51.4619 322.992 51.4111 323.461 51.4111C323.868 51.4111 324.227 51.4323 324.541 51.4746C324.854 51.5169 325.131 51.5635 325.372 51.6143V52.8774C325.004 52.759 324.657 52.6764 324.331 52.6299C324.009 52.5791 323.69 52.5537 323.373 52.5537C323.055 52.5537 322.799 52.6108 322.604 52.7251C322.414 52.8394 322.319 52.998 322.319 53.2012C322.319 53.2985 322.338 53.3853 322.376 53.4614C322.414 53.5376 322.488 53.6117 322.598 53.6836C322.712 53.7555 322.869 53.8317 323.068 53.9121C323.271 53.9883 323.538 54.0729 323.868 54.166C324.24 54.2718 324.553 54.3861 324.807 54.5088C325.061 54.6273 325.264 54.7627 325.417 54.915C325.573 55.0674 325.685 55.2409 325.753 55.4355C325.821 55.6302 325.854 55.8524 325.854 56.1021ZM333.3 54.2803C333.3 54.3861 333.296 54.5236 333.288 54.6929C333.283 54.8621 333.275 55.0208 333.262 55.1689H329.022C329.022 55.4525 329.064 55.7021 329.149 55.918C329.238 56.1338 329.361 56.3158 329.517 56.4639C329.678 56.6077 329.868 56.7178 330.088 56.7939C330.313 56.8701 330.56 56.9082 330.831 56.9082C331.144 56.9082 331.479 56.8849 331.834 56.8384C332.194 56.7876 332.566 56.7072 332.951 56.5972V57.8286C332.786 57.8752 332.606 57.9175 332.412 57.9556C332.217 57.9937 332.018 58.0275 331.815 58.0571C331.612 58.0868 331.407 58.1079 331.199 58.1206C330.992 58.1375 330.791 58.146 330.596 58.146C330.105 58.146 329.665 58.0762 329.276 57.9365C328.887 57.7969 328.556 57.5916 328.286 57.3208C328.015 57.0457 327.807 56.7072 327.664 56.3052C327.52 55.9032 327.448 55.4377 327.448 54.9087C327.448 54.384 327.52 53.9079 327.664 53.4805C327.807 53.0488 328.011 52.6807 328.273 52.376C328.535 52.0671 328.853 51.8301 329.225 51.665C329.602 51.4958 330.021 51.4111 330.482 51.4111C330.939 51.4111 331.343 51.4831 331.694 51.627C332.046 51.7666 332.34 51.9634 332.577 52.2173C332.814 52.4712 332.993 52.7738 333.116 53.125C333.239 53.4762 333.3 53.8613 333.3 54.2803ZM331.726 54.0581C331.73 53.8042 331.699 53.5841 331.631 53.3979C331.563 53.2075 331.47 53.0509 331.352 52.9282C331.237 52.8055 331.102 52.7145 330.945 52.6553C330.793 52.596 330.628 52.5664 330.45 52.5664C330.061 52.5664 329.741 52.6976 329.492 52.96C329.242 53.2181 329.094 53.5841 329.047 54.0581H331.726Z" fill="#6EC8A5"/>
<path d="M335.794 58.104C335.404 58.104 335.083 57.9913 334.832 57.766C334.589 57.532 334.468 57.246 334.468 56.908C334.468 56.5613 334.589 56.271 334.832 56.037C335.083 55.803 335.404 55.686 335.794 55.686C336.175 55.686 336.487 55.803 336.73 56.037C336.981 56.271 337.107 56.5613 337.107 56.908C337.107 57.246 336.981 57.532 336.73 57.766C336.487 57.9913 336.175 58.104 335.794 58.104ZM335.794 52.813C335.404 52.813 335.083 52.7003 334.832 52.475C334.589 52.241 334.468 51.955 334.468 51.617C334.468 51.2703 334.589 50.98 334.832 50.746C335.083 50.512 335.404 50.395 335.794 50.395C336.175 50.395 336.487 50.512 336.73 50.746C336.981 50.98 337.107 51.2703 337.107 51.617C337.107 51.955 336.981 52.241 336.73 52.475C336.487 52.7003 336.175 52.813 335.794 52.813Z" fill="#F3F3F3"/>
<path d="M328.732 32.5508V36.7529C328.732 37.1042 328.798 37.3708 328.929 37.5527C329.06 37.7305 329.259 37.8193 329.526 37.8193C329.784 37.8193 330.031 37.7135 330.268 37.502C330.51 37.2861 330.764 36.9963 331.03 36.6323V32.5508H332.579V39H331.24L331.202 38.0479C331.066 38.2129 330.929 38.3631 330.789 38.4985C330.649 38.634 330.497 38.7503 330.332 38.8477C330.171 38.9408 329.993 39.0127 329.799 39.0635C329.608 39.1185 329.397 39.146 329.164 39.146C328.834 39.146 328.544 39.0931 328.294 38.9873C328.049 38.8773 327.844 38.7228 327.679 38.5239C327.514 38.325 327.389 38.0881 327.304 37.813C327.224 37.5337 327.184 37.2227 327.184 36.8799V32.5508H328.732ZM338.58 39V34.7979C338.58 34.0911 338.318 33.7378 337.793 33.7378C337.531 33.7378 337.279 33.8436 337.038 34.0552C336.801 34.2668 336.549 34.5545 336.282 34.9185V39H334.734V32.5508H336.073L336.111 33.5029C336.242 33.3379 336.378 33.1877 336.517 33.0522C336.661 32.9168 336.816 32.8026 336.981 32.7095C337.146 32.6121 337.324 32.5381 337.514 32.4873C337.704 32.4365 337.918 32.4111 338.155 32.4111C338.485 32.4111 338.773 32.4661 339.018 32.5762C339.264 32.682 339.469 32.8343 339.634 33.0332C339.799 33.2279 339.922 33.4648 340.002 33.7441C340.087 34.0192 340.129 34.3281 340.129 34.6709V39H338.58ZM346.264 39L343.883 35.7754V39H342.335V30.0308H343.883V35.2803L346.137 32.5508H348.073L345.458 35.4897L348.289 39H346.264ZM353.655 39V34.7979C353.655 34.0911 353.393 33.7378 352.868 33.7378C352.606 33.7378 352.354 33.8436 352.113 34.0552C351.876 34.2668 351.624 34.5545 351.357 34.9185V39H349.809V32.5508H351.148L351.186 33.5029C351.317 33.3379 351.453 33.1877 351.592 33.0522C351.736 32.9168 351.891 32.8026 352.056 32.7095C352.221 32.6121 352.398 32.5381 352.589 32.4873C352.779 32.4365 352.993 32.4111 353.23 32.4111C353.56 32.4111 353.848 32.4661 354.093 32.5762C354.339 32.682 354.544 32.8343 354.709 33.0332C354.874 33.2279 354.997 33.4648 355.077 33.7441C355.162 34.0192 355.204 34.3281 355.204 34.6709V39H353.655ZM363.154 35.7246C363.154 36.2324 363.082 36.6979 362.938 37.1211C362.794 37.54 362.587 37.8997 362.316 38.2002C362.045 38.5007 361.713 38.7334 361.32 38.8984C360.926 39.0635 360.478 39.146 359.974 39.146C359.496 39.146 359.068 39.0762 358.692 38.9365C358.315 38.7969 357.996 38.5895 357.733 38.3145C357.471 38.0352 357.27 37.6882 357.13 37.2734C356.991 36.8545 356.921 36.3678 356.921 35.8135C356.921 35.3014 356.993 34.8359 357.137 34.417C357.285 33.998 357.494 33.6405 357.765 33.3442C358.04 33.048 358.374 32.8195 358.768 32.6587C359.161 32.4937 359.606 32.4111 360.101 32.4111C360.583 32.4111 361.013 32.4831 361.39 32.627C361.766 32.7666 362.086 32.9761 362.348 33.2554C362.61 33.5347 362.809 33.8817 362.945 34.2964C363.084 34.7069 363.154 35.1829 363.154 35.7246ZM361.542 35.7627C361.542 35.0941 361.415 34.5926 361.161 34.2583C360.911 33.9198 360.541 33.7505 360.05 33.7505C359.779 33.7505 359.549 33.8034 359.358 33.9092C359.168 34.015 359.011 34.161 358.889 34.3472C358.766 34.5291 358.675 34.7428 358.616 34.9883C358.561 35.2337 358.533 35.4961 358.533 35.7754C358.533 36.4482 358.668 36.9561 358.939 37.2988C359.21 37.6374 359.58 37.8066 360.05 37.8066C360.308 37.8066 360.533 37.7559 360.723 37.6543C360.913 37.5485 361.068 37.4046 361.186 37.2227C361.305 37.0365 361.394 36.8185 361.453 36.5688C361.512 36.3192 361.542 36.0505 361.542 35.7627ZM370.177 39H368.457L367.772 36.9561L367.562 36.2451L367.353 36.9751L366.693 39H364.966L364.052 32.5508H365.525L365.988 36.1943L366.096 37.1909L366.356 36.2959L367.004 34.3345H368.184L368.876 36.2832L369.175 37.2036L369.295 36.1816L369.682 32.5508H371.085L370.177 39ZM376.268 39V34.7979C376.268 34.0911 376.005 33.7378 375.481 33.7378C375.218 33.7378 374.966 33.8436 374.725 34.0552C374.488 34.2668 374.236 34.5545 373.97 34.9185V39H372.421V32.5508H373.76L373.798 33.5029C373.93 33.3379 374.065 33.1877 374.205 33.0522C374.349 32.9168 374.503 32.8026 374.668 32.7095C374.833 32.6121 375.011 32.5381 375.201 32.4873C375.392 32.4365 375.605 32.4111 375.842 32.4111C376.172 32.4111 376.46 32.4661 376.706 32.5762C376.951 32.682 377.156 32.8343 377.321 33.0332C377.486 33.2279 377.609 33.4648 377.69 33.7441C377.774 34.0192 377.816 34.3281 377.816 34.6709V39H376.268Z" fill="#F1B316"/>
<path d="M327.115 69.9795V68.7036H332.359V69.9795H330.53V75.7114H332.359V77H327.115V75.7114H328.943V69.9795H327.115ZM340.512 72.7471C340.512 73.3903 340.431 73.9743 340.271 74.499C340.114 75.0238 339.866 75.4723 339.528 75.8447C339.194 76.2129 338.764 76.4985 338.239 76.7017C337.715 76.9006 337.086 77 336.354 77H334.247V68.7036H336.703C337.338 68.7036 337.892 68.784 338.366 68.9448C338.844 69.1014 339.242 69.3447 339.56 69.6748C339.877 70.0049 340.114 70.4238 340.271 70.9316C340.431 71.4395 340.512 72.0446 340.512 72.7471ZM338.836 72.8486C338.836 72.4001 338.8 72.0002 338.728 71.6489C338.656 71.2977 338.533 71.0015 338.36 70.7603C338.191 70.5148 337.962 70.3286 337.674 70.2017C337.387 70.0747 337.029 70.0112 336.602 70.0112H335.808V75.6924H336.494C337.26 75.6924 337.841 75.4639 338.239 75.0068C338.637 74.5498 338.836 73.8304 338.836 72.8486Z" fill="#F1B316"/>
<path d="M352.825 70.201V71.449H345.909V70.201H352.825ZM352.825 73.152V74.4H345.909V73.152H352.825ZM360.237 67.965V77H358.755V67.965H360.237ZM365.134 67.965C366.096 67.965 366.937 68.1513 367.656 68.524C368.384 68.888 368.943 69.4167 369.333 70.11C369.732 70.7947 369.931 71.5963 369.931 72.515C369.931 73.4337 369.732 74.231 369.333 74.907C368.943 75.583 368.384 76.103 367.656 76.467C366.937 76.8223 366.096 77 365.134 77H362.183V67.965H365.134ZM365.134 75.791C366.191 75.791 367.002 75.505 367.565 74.933C368.128 74.361 368.41 73.555 368.41 72.515C368.41 71.4663 368.128 70.6473 367.565 70.058C367.002 69.4687 366.191 69.174 365.134 69.174H363.665V75.791H365.134ZM379.317 77.52V78.898H372.063V77.52H379.317ZM383.254 75.804H386.309V77H381.772V67.965H383.254V75.804ZM388.172 74.985C389.004 74.2657 389.658 73.6763 390.135 73.217C390.62 72.749 391.023 72.2637 391.344 71.761C391.665 71.2583 391.825 70.7557 391.825 70.253C391.825 69.733 391.699 69.3257 391.448 69.031C391.205 68.7363 390.82 68.589 390.291 68.589C389.78 68.589 389.381 68.7537 389.095 69.083C388.818 69.4037 388.67 69.837 388.653 70.383H387.223C387.249 69.395 387.544 68.641 388.107 68.121C388.679 67.5923 389.403 67.328 390.278 67.328C391.223 67.328 391.959 67.588 392.488 68.108C393.025 68.628 393.294 69.3213 393.294 70.188C393.294 70.812 393.134 71.4143 392.813 71.995C392.501 72.567 392.124 73.0827 391.682 73.542C391.249 73.9927 390.694 74.517 390.018 75.115L389.433 75.635H393.554V76.87H387.236V75.791L388.172 74.985ZM405.942 70.201V71.449H399.026V70.201H405.942ZM405.942 73.152V74.4H399.026V73.152H405.942ZM413.354 67.965V77H411.872V67.965H413.354ZM418.251 67.965C419.213 67.965 420.054 68.1513 420.773 68.524C421.501 68.888 422.06 69.4167 422.45 70.11C422.849 70.7947 423.048 71.5963 423.048 72.515C423.048 73.4337 422.849 74.231 422.45 74.907C422.06 75.583 421.501 76.103 420.773 76.467C420.054 76.8223 419.213 77 418.251 77H415.3V67.965H418.251ZM418.251 75.791C419.308 75.791 420.119 75.505 420.682 74.933C421.245 74.361 421.527 73.555 421.527 72.515C421.527 71.4663 421.245 70.6473 420.682 70.058C420.119 69.4687 419.308 69.174 418.251 69.174H416.782V75.791H418.251ZM432.434 77.52V78.898H425.18V77.52H432.434ZM434.395 73.412C434.395 72.6753 434.542 72.0297 434.837 71.475C435.14 70.9117 435.556 70.4783 436.085 70.175C436.614 69.8717 437.22 69.72 437.905 69.72C438.772 69.72 439.487 69.928 440.05 70.344C440.622 70.7513 441.008 71.3363 441.207 72.099H439.608C439.478 71.7437 439.27 71.4663 438.984 71.267C438.698 71.0677 438.338 70.968 437.905 70.968C437.298 70.968 436.813 71.1847 436.449 71.618C436.094 72.0427 435.916 72.6407 435.916 73.412C435.916 74.1833 436.094 74.7857 436.449 75.219C436.813 75.6523 437.298 75.869 437.905 75.869C438.763 75.869 439.331 75.492 439.608 74.738H441.207C440.999 75.466 440.609 76.0467 440.037 76.48C439.465 76.9047 438.754 77.117 437.905 77.117C437.22 77.117 436.614 76.9653 436.085 76.662C435.556 76.35 435.14 75.9167 434.837 75.362C434.542 74.7987 434.395 74.1487 434.395 73.412ZM445.791 77.117C445.115 77.117 444.504 76.9653 443.958 76.662C443.412 76.35 442.983 75.9167 442.671 75.362C442.359 74.7987 442.203 74.1487 442.203 73.412C442.203 72.684 442.363 72.0383 442.684 71.475C443.005 70.9117 443.442 70.4783 443.997 70.175C444.552 69.8717 445.171 69.72 445.856 69.72C446.541 69.72 447.16 69.8717 447.715 70.175C448.27 70.4783 448.707 70.9117 449.028 71.475C449.349 72.0383 449.509 72.684 449.509 73.412C449.509 74.14 449.344 74.7857 449.015 75.349C448.686 75.9123 448.235 76.35 447.663 76.662C447.1 76.9653 446.476 77.117 445.791 77.117ZM445.791 75.83C446.172 75.83 446.528 75.739 446.857 75.557C447.195 75.375 447.468 75.102 447.676 74.738C447.884 74.374 447.988 73.932 447.988 73.412C447.988 72.892 447.888 72.4543 447.689 72.099C447.49 71.735 447.225 71.462 446.896 71.28C446.567 71.098 446.211 71.007 445.83 71.007C445.449 71.007 445.093 71.098 444.764 71.28C444.443 71.462 444.188 71.735 443.997 72.099C443.806 72.4543 443.711 72.892 443.711 73.412C443.711 74.1833 443.906 74.7813 444.296 75.206C444.695 75.622 445.193 75.83 445.791 75.83ZM453.574 77.117C453.011 77.117 452.504 77.0173 452.053 76.818C451.611 76.61 451.26 76.3327 451 75.986C450.74 75.6307 450.601 75.2363 450.584 74.803H452.118C452.144 75.1063 452.287 75.362 452.547 75.57C452.816 75.7693 453.149 75.869 453.548 75.869C453.964 75.869 454.285 75.791 454.51 75.635C454.744 75.4703 454.861 75.2623 454.861 75.011C454.861 74.7423 454.731 74.543 454.471 74.413C454.22 74.283 453.817 74.14 453.262 73.984C452.725 73.8367 452.287 73.6937 451.949 73.555C451.611 73.4163 451.316 73.204 451.065 72.918C450.822 72.632 450.701 72.255 450.701 71.787C450.701 71.4057 450.814 71.059 451.039 70.747C451.264 70.4263 451.585 70.175 452.001 69.993C452.426 69.811 452.911 69.72 453.457 69.72C454.272 69.72 454.926 69.928 455.42 70.344C455.923 70.7513 456.191 71.3103 456.226 72.021H454.744C454.718 71.7003 454.588 71.4447 454.354 71.254C454.12 71.0633 453.804 70.968 453.405 70.968C453.015 70.968 452.716 71.0417 452.508 71.189C452.3 71.3363 452.196 71.5313 452.196 71.774C452.196 71.9647 452.265 72.125 452.404 72.255C452.543 72.385 452.712 72.489 452.911 72.567C453.11 72.6363 453.405 72.7273 453.795 72.84C454.315 72.9787 454.74 73.1217 455.069 73.269C455.407 73.4077 455.697 73.6157 455.94 73.893C456.183 74.1703 456.308 74.5387 456.317 74.998C456.317 75.4053 456.204 75.7693 455.979 76.09C455.754 76.4107 455.433 76.662 455.017 76.844C454.61 77.026 454.129 77.117 453.574 77.117ZM458.672 68.888C458.404 68.888 458.178 68.797 457.996 68.615C457.814 68.433 457.723 68.2077 457.723 67.939C457.723 67.6703 457.814 67.445 457.996 67.263C458.178 67.081 458.404 66.99 458.672 66.99C458.932 66.99 459.153 67.081 459.335 67.263C459.517 67.445 459.608 67.6703 459.608 67.939C459.608 68.2077 459.517 68.433 459.335 68.615C459.153 68.797 458.932 68.888 458.672 68.888ZM459.4 69.837V77H457.918V69.837H459.4ZM464.96 69.72C465.523 69.72 466.026 69.837 466.468 70.071C466.919 70.305 467.27 70.6517 467.521 71.111C467.772 71.5703 467.898 72.125 467.898 72.775V77H466.429V72.996C466.429 72.3547 466.269 71.865 465.948 71.527C465.627 71.1803 465.19 71.007 464.635 71.007C464.08 71.007 463.638 71.1803 463.309 71.527C462.988 71.865 462.828 72.3547 462.828 72.996V77H461.346V69.837H462.828V70.656C463.071 70.3613 463.378 70.1317 463.751 69.967C464.132 69.8023 464.535 69.72 464.96 69.72ZM476.353 73.243C476.353 73.5117 476.336 73.7543 476.301 73.971H470.828C470.872 74.543 471.084 75.0023 471.465 75.349C471.847 75.6957 472.315 75.869 472.869 75.869C473.667 75.869 474.23 75.5353 474.559 74.868H476.158C475.942 75.5267 475.547 76.0683 474.975 76.493C474.412 76.909 473.71 77.117 472.869 77.117C472.185 77.117 471.569 76.9653 471.023 76.662C470.486 76.35 470.061 75.9167 469.749 75.362C469.446 74.7987 469.294 74.1487 469.294 73.412C469.294 72.6753 469.442 72.0297 469.736 71.475C470.04 70.9117 470.46 70.4783 470.997 70.175C471.543 69.8717 472.167 69.72 472.869 69.72C473.545 69.72 474.148 69.8673 474.676 70.162C475.205 70.4567 475.617 70.8727 475.911 71.41C476.206 71.9387 476.353 72.5497 476.353 73.243ZM474.806 72.775C474.798 72.229 474.603 71.7913 474.221 71.462C473.84 71.1327 473.368 70.968 472.804 70.968C472.293 70.968 471.855 71.1327 471.491 71.462C471.127 71.7827 470.911 72.2203 470.841 72.775H474.806Z" fill="#F3F3F3"/>
</svg>
